<?xml version="1.0" standalone="no"?>
<!DOCTYPE svg PUBLIC "-//W3C//DTD SVG 20010904//EN"
 "http://www.w3.org/TR/2001/REC-SVG-20010904/DTD/svg10.dtd">
<svg version="1.0" xmlns="http://www.w3.org/2000/svg"
 width="1500.000000pt" height="1125.000000pt" viewBox="0 0 1500.000000 1125.000000"
 preserveAspectRatio="xMidYMid meet">

<g transform="translate(0.000000,1125.000000) scale(0.100000,-0.100000)"
fill="#000000" stroke="none">
<path d="M0 6470 l0 -4780 29 0 c21 0 32 -6 36 -21 5 -16 9 -18 15 -9 4 7 13
9 19 6 6 -4 11 -1 11 6 1 9 4 8 13 -3 7 -9 33 -19 58 -23 25 -4 92 -22 149
-41 56 -19 110 -35 118 -35 18 0 79 -18 104 -31 10 -5 24 -9 32 -9 8 0 16 -4
18 -9 2 -6 14 -12 28 -15 59 -12 146 -38 155 -47 5 -5 19 -9 31 -9 13 0 25 -4
28 -9 4 -5 23 -12 45 -16 21 -3 89 -24 152 -46 63 -22 129 -41 148 -44 19 -2
37 -9 41 -15 5 -8 18 -10 34 -6 18 4 26 2 26 -7 0 -15 -126 -389 -160 -477
-12 -30 -45 -122 -74 -205 -29 -82 -58 -160 -65 -173 -28 -52 -100 -307 -116
-409 l-7 -43 3491 0 c1920 0 3491 3 3491 6 0 10 -282 579 -295 594 -7 8 -29
47 -50 85 -60 111 -120 217 -143 255 -11 19 -39 67 -62 105 -22 39 -70 117
-105 175 -35 58 -64 115 -65 127 0 12 -4 23 -9 25 -5 2 -12 18 -16 35 -5 27
-4 33 11 33 15 0 16 9 11 97 -3 54 -12 123 -20 153 -20 75 -97 233 -146 300
-23 30 -55 82 -72 115 -17 33 -35 62 -40 63 -5 2 -9 12 -9 22 0 10 -6 25 -13
32 -7 7 -18 24 -25 38 l-12 25 6 -25 6 -25 -21 27 c-11 14 -21 30 -21 35 0 5
-9 18 -19 30 -11 11 -21 31 -23 44 -3 23 -33 61 -95 121 -18 17 -33 37 -33 44
0 7 -5 25 -12 41 -6 15 -11 31 -10 35 1 4 -7 10 -18 13 -11 4 -20 13 -20 21 0
8 -7 17 -15 20 -8 4 -15 11 -15 18 0 6 -13 27 -30 46 -16 19 -29 40 -30 47 0
6 -31 44 -70 83 -38 39 -70 75 -70 81 0 12 17 12 25 -1 3 -5 15 -10 25 -10 11
0 72 -27 135 -59 114 -59 183 -81 250 -81 53 0 152 -42 244 -105 55 -36 91
-55 104 -51 13 3 17 0 13 -10 -4 -9 1 -14 15 -14 17 0 18 3 8 21 -8 15 -8 24
0 32 7 7 13 3 20 -14 10 -24 10 -24 10 -1 1 12 1 25 1 30 0 4 -6 7 -12 7 -18
0 -58 36 -58 51 0 7 -10 20 -22 28 -18 13 -19 16 -5 16 9 0 17 5 17 10 0 6 -9
10 -21 10 -11 0 -17 5 -14 10 3 6 17 10 31 10 13 0 24 4 24 10 0 5 17 8 38 7
25 -1 36 2 34 11 -1 6 2 12 8 12 5 0 10 -5 10 -11 0 -7 9 -9 24 -5 14 3 53 -3
88 -14 75 -23 68 -22 68 -9 0 5 -4 8 -9 4 -5 -3 -12 -1 -16 5 -4 6 5 10 19 10
14 0 26 -5 26 -11 0 -6 8 -8 20 -4 10 3 27 2 37 -4 13 -6 24 -5 38 5 19 14 75
20 61 7 -4 -5 -11 -8 -14 -9 -23 -3 -54 -22 -45 -27 12 -8 78 17 88 33 11 18
35 11 29 -7 -5 -16 -4 -16 10 1 8 10 20 15 26 11 6 -4 19 3 29 14 11 12 31 21
47 21 22 0 25 3 14 10 -12 7 -10 11 10 18 14 6 35 20 47 31 12 12 34 26 48 31
17 6 23 14 18 26 -5 13 0 15 28 13 23 -2 33 1 31 9 -1 7 4 12 12 12 8 0 17 7
20 16 4 11 13 14 31 10 17 -4 26 -2 27 6 3 29 4 34 16 55 16 28 15 33 -3 33
-8 0 -19 9 -25 20 -9 16 -15 18 -30 10 -22 -12 -30 -13 -29 -2 6 34 -2 43 -30
37 -24 -5 -29 -2 -35 17 -3 13 -9 19 -13 13 -5 -5 -18 -16 -31 -23 -20 -11
-27 -11 -47 2 -14 9 -31 16 -40 16 -8 0 -15 6 -15 14 0 7 -9 16 -20 19 -11 3
-18 2 -16 -2 2 -3 -2 -15 -10 -26 -12 -16 -14 -17 -14 -2 0 9 -7 17 -15 17 -8
0 -15 -5 -15 -10 0 -6 -11 -16 -25 -22 -24 -11 -29 -8 -63 30 -41 45 -71 54
-79 22 -6 -24 -35 -26 -69 -3 -14 9 -37 18 -51 19 -14 2 -31 11 -38 22 -12 17
-107 194 -116 217 -2 6 -16 9 -30 8 -20 -2 -28 3 -32 18 -4 16 -10 19 -28 14
-15 -5 -19 -4 -15 4 4 6 0 18 -8 27 -17 16 -12 39 5 28 5 -3 7 -10 4 -15 -4
-5 -1 -9 4 -9 6 0 11 6 12 13 1 6 2 21 2 32 3 33 21 32 37 -2 8 -18 18 -33 22
-33 15 0 17 39 3 66 -9 16 -15 47 -13 69 1 23 -2 46 -6 53 -4 7 -2 12 6 12 9
0 9 3 -2 10 -13 9 -12 12 4 25 14 11 17 18 9 26 -17 17 0 74 22 74 11 0 19 5
18 12 -1 6 13 18 31 27 45 21 54 34 58 81 4 49 20 54 79 26 60 -29 102 -28
119 4 8 14 18 24 24 22 16 -6 48 12 41 23 -3 5 0 12 6 16 8 4 7 9 -2 15 -12 8
-11 11 1 19 12 7 8 10 -14 10 -16 0 -26 3 -23 7 8 7 -59 42 -82 43 -7 0 -11 6
-8 15 4 8 1 17 -4 21 -6 3 -9 14 -6 24 8 31 -24 34 -50 4 -12 -15 -20 -30 -18
-34 6 -10 -24 -22 -36 -14 -6 3 -5 11 2 20 6 7 8 22 4 31 -6 17 -7 17 -16 0
-12 -21 -47 -23 -55 -2 -3 8 -13 17 -22 20 -21 6 -38 43 -34 73 5 34 22 26 22
-10 0 -18 4 -40 10 -48 7 -11 11 -9 19 13 12 32 27 35 36 7 10 -32 56 -26 80
10 22 34 33 37 49 15 12 -16 25 -10 42 20 17 30 99 34 114 6 12 -24 40 -28 40
-6 0 20 39 20 76 0 16 -8 41 -15 56 -15 33 0 42 -13 28 -40 -8 -15 -17 -19
-31 -15 -14 5 -19 2 -19 -10 0 -12 -5 -15 -16 -11 -9 3 -20 6 -25 6 -6 0 -7 5
-4 10 3 6 2 10 -3 10 -5 0 -12 -9 -15 -20 -3 -11 -12 -20 -21 -20 -9 0 -16 -4
-16 -10 0 -13 17 -13 25 0 5 8 11 7 20 0 8 -7 20 -8 27 -4 7 4 10 4 6 -1 -12
-13 25 -35 39 -24 7 7 13 6 18 0 4 -7 17 -6 39 3 23 9 37 11 44 4 6 -6 15 -2
26 14 14 20 24 23 73 22 32 -1 59 -7 61 -13 2 -6 8 -11 13 -11 18 0 79 -45 79
-59 0 -8 8 -20 18 -27 20 -16 66 -19 57 -4 -3 6 -2 10 3 10 6 0 7 14 2 37 -5
20 -7 40 -4 44 8 13 -49 46 -125 72 -40 14 -80 35 -87 46 -46 65 -216 182
-306 211 -21 6 -40 16 -44 21 -3 6 -25 9 -48 8 -22 -1 -49 2 -59 6 -10 4 -46
5 -79 2 -42 -4 -68 -1 -82 8 -43 27 -142 53 -191 51 -51 -3 -174 -22 -209 -32
-12 -4 -16 -2 -12 5 5 8 0 8 -18 1 -21 -7 -26 -6 -26 5 0 8 4 15 9 15 4 0 6
10 4 23 -4 17 2 26 22 35 36 17 23 33 -17 21 -29 -8 -36 -6 -63 21 l-30 30 28
0 c33 0 35 13 5 35 l-23 15 23 6 c12 4 22 10 22 15 0 5 7 9 15 9 8 0 15 5 15
10 0 6 7 10 15 10 8 0 15 7 15 15 0 17 25 20 35 5 10 -16 22 -12 28 10 3 14
14 20 31 20 14 0 26 4 26 9 0 4 11 6 25 4 14 -3 38 3 57 15 28 17 57 24 131
31 4 1 23 18 42 39 31 33 40 37 80 36 34 -1 46 3 50 17 3 9 16 24 29 32 13 9
35 40 50 71 31 63 27 79 -29 131 -32 29 -101 163 -97 186 1 4 -9 10 -22 13
-14 3 -26 16 -30 31 -7 26 -20 32 -31 15 -10 -17 -35 8 -35 35 0 12 3 25 7 29
17 17 32 84 26 119 -5 31 -9 36 -24 32 -11 -4 -19 -2 -19 4 0 6 5 11 10 11 6
0 10 9 10 19 0 11 6 22 13 24 9 4 9 8 -1 15 -11 8 -11 10 1 15 11 4 13 23 10
94 -3 48 -9 92 -14 98 -18 18 -10 76 15 106 14 16 28 25 31 19 10 -16 23 -12
35 9 7 15 6 32 -4 63 -8 24 -15 59 -14 78 1 36 -8 87 -21 124 -4 12 -6 36 -4
54 1 17 -1 32 -7 32 -5 0 -17 25 -27 56 -11 37 -26 62 -43 73 -47 30 -58 43
-52 64 4 17 1 19 -16 15 -16 -5 -27 1 -42 20 -14 20 -22 24 -28 14 -6 -9 -20
-2 -52 28 -24 22 -47 40 -52 40 -4 0 -27 19 -49 43 -23 23 -46 41 -51 39 -5
-1 -22 7 -39 18 -16 12 -45 24 -64 27 -20 3 -42 14 -49 24 -7 11 -15 16 -18
13 -3 -3 -5 3 -4 13 1 12 -7 19 -24 21 -13 2 -35 13 -49 23 -17 13 -28 16 -35
9 -13 -13 -46 -13 -46 -1 0 5 8 12 18 14 38 10 -117 -1 -178 -13 -88 -17 -92
-18 -85 -30 6 -10 -13 -14 -50 -12 -19 2 -18 0 4 -18 l23 -20 -31 0 c-19 0
-30 -4 -26 -10 4 -6 -10 -10 -34 -10 -23 0 -41 -4 -41 -10 0 -5 -5 -10 -11
-10 -6 0 -17 -7 -25 -15 -17 -17 -44 -20 -44 -5 0 6 -5 10 -11 10 -6 0 -9 -6
-6 -14 8 -20 -3 -27 -24 -16 -14 8 -19 6 -24 -10 -4 -13 -15 -20 -31 -20 -19
0 -28 -8 -40 -35 -13 -33 -34 -48 -34 -25 0 6 -7 10 -15 10 -8 0 -15 -8 -15
-19 0 -10 -9 -21 -20 -24 -22 -6 -28 -43 -7 -50 15 -5 -9 -37 -29 -37 -7 0
-19 -9 -28 -21 -20 -29 -58 -17 -53 16 1 14 6 27 9 31 4 3 4 12 2 18 -3 7 7
21 21 30 14 9 23 21 20 25 -8 14 21 32 39 25 9 -3 16 -2 16 4 0 16 -33 24 -41
10 -4 -7 -11 -9 -15 -5 -4 4 3 16 16 27 14 12 20 25 16 36 -4 12 -2 15 9 10 9
-3 15 0 15 10 0 8 13 26 29 40 16 13 38 40 50 59 18 32 19 35 3 44 -13 8 -14
12 -3 25 7 9 10 16 6 16 -4 0 4 12 19 27 25 25 26 28 11 39 -9 7 -14 17 -11
22 3 5 -4 12 -15 15 -14 4 -20 11 -16 21 4 10 -6 20 -34 33 -27 11 -38 22 -34
31 5 12 3 13 -10 2 -13 -10 -19 -10 -34 4 -10 9 -25 14 -35 10 -9 -3 -16 -2
-16 4 0 5 -10 13 -22 16 -22 6 -22 7 -5 20 11 8 26 13 35 10 10 -2 1 3 -18 13
-19 9 -39 16 -43 15 -5 -2 -6 2 -2 8 3 5 13 10 20 10 8 0 12 6 9 14 -4 9 -19
12 -55 9 -35 -2 -48 0 -43 8 3 6 21 9 39 7 25 -3 31 0 27 11 -3 9 -1 12 6 7 8
-5 12 0 12 13 0 12 -4 21 -9 21 -14 0 -7 40 9 50 24 15 -14 24 -40 10 -12 -6
-24 -9 -27 -6 -3 3 3 9 13 13 10 4 25 13 32 20 7 7 21 13 30 14 9 0 4 5 -12 9
-18 6 -37 5 -50 -1 -17 -8 -16 -6 4 10 13 10 28 17 32 15 4 -3 4 6 -1 19 -6
14 -7 28 -4 31 4 3 -8 4 -24 2 -24 -2 -30 0 -26 11 10 25 75 83 94 83 10 0 21
5 24 10 3 6 1 10 -6 10 -7 0 -5 8 7 21 18 20 18 21 -1 36 -15 12 -16 14 -3 10
9 -3 22 1 28 9 7 8 9 14 4 14 -5 1 3 7 18 15 26 14 54 77 43 95 -7 11 17 26
43 28 26 1 28 -10 7 -28 -19 -16 -14 -23 9 -14 23 9 50 61 34 66 -7 3 -9 12
-4 24 7 19 8 19 22 0 14 -19 14 -19 14 1 0 12 5 25 11 29 6 3 8 15 6 26 -4 14
-1 18 8 14 9 -3 12 0 8 10 -3 8 1 14 10 14 9 0 33 17 53 38 29 29 35 33 30 15
-6 -18 1 -14 33 18 23 22 49 39 58 37 10 -2 18 3 18 12 0 17 84 63 102 55 7
-2 13 0 13 4 0 5 9 7 20 4 11 -3 20 0 20 6 0 6 5 11 11 11 6 0 9 -7 5 -15 -6
-17 7 -19 35 -5 16 9 21 7 29 -16 7 -19 7 -30 -1 -40 -8 -10 -8 -14 0 -14 6 0
11 -5 11 -11 0 -17 28 -40 35 -29 3 5 11 10 16 10 6 0 7 -4 4 -10 -3 -5 3 -10
14 -10 10 0 21 6 24 13 3 7 9 2 15 -13 6 -15 6 -29 1 -35 -12 -12 -12 -28 0
-20 6 3 13 -1 18 -8 4 -8 19 -20 32 -27 15 -7 21 -8 17 -1 -4 6 -2 11 4 11 8
0 9 -7 5 -17 -4 -10 -7 -25 -7 -34 0 -9 -6 -16 -15 -15 -9 0 -18 -5 -20 -12
-3 -7 1 -10 11 -6 11 4 16 0 17 -12 0 -16 2 -15 9 3 6 16 14 21 26 16 9 -3 20
0 24 8 5 7 12 10 17 5 4 -4 0 -12 -9 -17 -10 -6 -14 -17 -11 -30 5 -16 1 -20
-13 -19 -36 4 -46 0 -40 -15 10 -26 -4 -46 -28 -40 -15 5 -17 4 -7 -3 7 -5 11
-15 7 -21 -5 -7 -1 -9 8 -5 9 3 16 2 16 -4 0 -12 -29 -24 -40 -17 -5 3 -11 1
-15 -5 -7 -12 54 -13 73 -1 10 6 10 10 -2 20 -27 23 10 73 47 63 10 -3 23 1
28 9 6 9 7 1 2 -20 -4 -25 -3 -32 6 -27 6 4 9 11 6 16 -3 5 0 12 6 15 5 4 8
13 5 21 -3 7 -2 16 3 18 4 3 7 15 6 28 -1 12 3 28 9 34 16 18 36 -3 36 -37 0
-20 5 -29 16 -29 14 0 14 3 4 15 -15 19 -13 21 24 31 21 5 27 4 22 -5 -4 -6
-3 -11 1 -11 14 0 77 69 70 76 -8 8 11 34 25 34 5 0 7 -4 4 -9 -10 -15 43 -19
61 -5 17 13 17 13 -2 14 -20 1 -20 1 -1 15 19 14 19 15 -7 15 -15 0 -27 6 -27
13 0 7 -7 4 -15 -7 -8 -11 -15 -16 -15 -12 0 5 -7 3 -16 -4 -12 -11 -18 -10
-31 3 -14 14 -14 18 -2 33 13 16 12 17 -8 12 -13 -4 -23 -3 -23 1 0 13 46 51
61 51 8 0 23 6 34 14 23 15 85 19 85 5 0 -5 9 -4 19 3 11 7 17 16 15 20 -3 4
2 8 10 8 9 0 16 5 16 11 0 8 5 8 15 -1 13 -11 15 -8 15 14 0 31 16 66 30 66 6
0 10 -6 10 -14 0 -9 7 -12 20 -9 11 3 20 12 20 19 0 17 5 17 31 4 15 -8 19 -7
19 5 0 8 -6 15 -14 15 -8 0 -17 4 -20 8 -7 12 26 12 41 0 7 -5 14 -5 18 2 3 5
15 10 27 10 31 0 92 32 77 40 -18 12 -3 28 26 28 23 -1 24 -2 8 -14 -19 -14
-23 -14 92 0 28 4 35 1 35 -12 1 -15 2 -15 14 1 11 14 15 15 19 5 4 -10 6 -10
6 1 1 11 4 11 16 1 12 -10 19 -10 27 -2 8 8 17 8 30 1 10 -5 22 -7 27 -4 5 3
7 -4 4 -16 -5 -19 -4 -20 18 -7 13 7 32 19 42 27 13 11 22 12 42 3 16 -7 26
-8 31 -1 3 6 24 7 50 3 41 -6 44 -5 45 17 0 22 1 22 8 5 5 -14 10 -16 15 -8 9
15 28 5 20 -11 -3 -7 2 -3 10 7 15 18 16 18 16 2 0 -13 5 -16 19 -11 21 6 38
-10 21 -20 -5 -3 -10 -11 -10 -16 0 -13 44 -6 63 10 9 7 29 10 46 8 17 -3 31
-1 31 4 0 4 7 6 16 2 8 -3 13 -11 10 -18 -5 -14 47 -16 60 -2 4 4 12 7 17 7 6
0 7 -3 4 -7 -4 -3 -2 -12 4 -19 8 -10 16 -11 30 -3 13 7 19 6 19 -1 0 -6 4 -9
9 -6 5 4 11 0 14 -6 3 -10 10 -8 26 6 11 11 21 14 21 9 0 -6 -7 -16 -15 -23
-25 -21 -9 -23 20 -4 l28 18 -8 -24 c-6 -21 -5 -23 6 -12 19 17 37 15 35 -5
-1 -13 10 -19 38 -24 21 -3 41 -11 45 -18 4 -6 25 -13 47 -14 21 -1 44 -9 51
-17 7 -8 13 -11 13 -7 0 12 30 -20 30 -32 0 -6 6 -11 14 -11 20 0 85 -65 101
-102 7 -18 34 -53 60 -78 26 -25 55 -61 65 -81 10 -19 38 -60 62 -90 70 -88
110 -176 87 -190 -8 -4 -1 -13 20 -23 31 -16 44 -33 17 -23 -11 4 -11 1 -2
-19 6 -13 14 -24 19 -24 4 0 7 -4 7 -10 0 -5 -8 -10 -17 -10 -14 0 -13 -4 5
-23 12 -13 20 -26 17 -29 -3 -3 1 -11 10 -18 8 -7 15 -17 15 -23 0 -5 8 -16
17 -23 17 -13 17 -14 -1 -7 -13 4 -17 3 -12 -5 4 -7 15 -12 24 -12 12 0 13 -3
4 -12 -7 -7 -8 -17 -1 -30 5 -10 7 -18 3 -18 -4 0 0 -8 9 -18 15 -16 15 -20 1
-40 -8 -12 -11 -22 -6 -22 6 0 8 -8 5 -19 -3 -11 2 -21 11 -24 9 -4 16 -11 16
-17 0 -6 -11 -3 -25 6 -23 15 -25 15 -19 0 3 -9 11 -16 16 -16 6 0 5 -6 -2
-15 -10 -12 -9 -16 3 -21 9 -3 20 -3 24 -1 5 3 9 -3 9 -12 0 -13 -8 -18 -23
-18 -12 0 -21 3 -18 7 2 3 -2 7 -10 7 -8 0 -15 -2 -15 -4 0 -8 36 -40 50 -46
12 -4 11 -6 -3 -6 -15 -1 -16 -4 -7 -22 9 -15 8 -24 -1 -35 -9 -11 -8 -19 7
-35 18 -20 18 -20 -11 -14 l-30 6 22 -19 c12 -11 19 -22 16 -26 -3 -3 4 -26
17 -52 19 -36 22 -49 12 -64 -8 -14 -8 -21 2 -29 35 -30 89 -182 102 -293 7
-57 10 -258 4 -258 -3 0 -5 -41 -4 -90 0 -50 -3 -90 -6 -90 -7 0 -6 -29 1 -55
1 -5 -1 -17 -4 -25 -6 -14 -14 -79 -21 -165 -2 -22 -8 -62 -14 -90 -6 -27 -13
-79 -17 -115 -9 -99 -35 -230 -51 -261 -18 -35 -18 -40 1 -33 8 4 15 2 15 -4
0 -6 -6 -13 -13 -15 -9 -4 -9 -6 1 -6 17 -1 15 -31 -2 -31 -21 0 -29 -59 -10
-78 15 -15 14 -18 -17 -46 -28 -24 -29 -26 -7 -12 l28 16 0 -35 c0 -41 -14
-70 -50 -102 -19 -18 -22 -25 -12 -35 8 -8 12 -9 12 -1 0 6 12 26 27 43 24 29
27 30 37 13 14 -24 15 -75 3 -91 -7 -9 -7 -16 1 -24 15 -15 52 60 42 87 -4 11
-3 28 2 38 5 10 7 25 4 33 -3 8 -1 24 4 36 8 21 9 21 10 3 2 -34 29 55 40 129
6 38 14 74 19 80 5 6 12 25 15 43 4 17 15 38 23 45 15 12 16 9 10 -22 -10 -50
8 -20 34 58 11 34 24 62 29 62 5 0 12 10 16 23 7 22 7 21 16 -5 5 -16 15 -28
22 -28 6 0 19 -19 27 -42 21 -57 46 -62 55 -11 3 21 20 62 36 91 32 56 46 65
28 17 -20 -52 -31 -120 -40 -235 -7 -96 -15 -135 -50 -235 -23 -66 -53 -158
-66 -205 -14 -47 -56 -150 -94 -230 -61 -128 -70 -153 -73 -215 -4 -61 -9 -78
-46 -137 -40 -63 -57 -78 -91 -84 -58 -9 -110 -11 -110 -4 0 4 -15 7 -32 6
-47 -4 -47 -4 -46 -24 0 -9 -7 -57 -16 -107 -9 -49 -22 -119 -28 -155 -5 -36
-18 -84 -29 -106 -10 -23 -21 -54 -25 -68 -3 -14 -10 -26 -16 -26 -5 0 -7 -4
-4 -9 6 -10 -15 -71 -25 -71 -4 0 -13 -16 -19 -35 -6 -19 -15 -35 -20 -35 -14
0 -29 -53 -33 -115 l-4 -60 59 -64 c33 -35 83 -91 111 -125 29 -35 124 -148
213 -252 89 -104 212 -255 275 -335 63 -80 142 -180 176 -222 114 -142 99
-238 -67 -437 -44 -52 -85 -111 -91 -130 -29 -90 -102 -203 -189 -292 -76 -79
-93 -102 -119 -169 -17 -43 -31 -83 -31 -89 0 -6 23 -68 52 -138 45 -110 52
-136 52 -197 1 -83 -20 -146 -75 -224 -30 -42 -36 -57 -29 -72 6 -10 14 -44
20 -76 5 -32 19 -96 31 -143 12 -47 23 -91 25 -98 2 -7 3 -14 4 -17 0 -3 6
-18 14 -33 7 -15 16 -52 19 -82 6 -60 15 -106 25 -130 3 -8 6 -19 7 -25 1 -5
5 -29 9 -53 5 -30 4 -47 -5 -58 -9 -11 -9 -18 -1 -26 7 -7 12 -25 12 -40 l0
-28 1968 0 1968 0 17 38 c9 21 17 43 17 49 0 6 7 16 15 23 8 7 13 16 10 20 -3
5 -1 10 4 12 9 3 38 93 46 143 2 11 11 47 20 80 10 33 23 83 31 110 8 28 18
59 23 70 6 11 13 36 16 55 10 57 12 64 19 80 3 9 20 65 36 125 16 61 41 151
55 200 15 50 27 98 27 108 -1 9 3 17 7 17 5 0 11 12 14 28 13 61 19 88 24 102
3 8 7 20 8 25 2 6 12 39 24 75 29 90 57 182 82 270 11 41 29 99 40 128 10 30
19 62 19 73 0 10 5 19 10 19 6 0 10 11 10 24 0 14 4 27 8 30 5 3 9 20 10 37 0
18 5 35 10 38 5 3 13 22 17 41 4 19 11 40 15 45 4 6 11 26 15 45 4 19 11 40
16 45 4 6 10 22 13 37 7 38 47 105 106 175 5 7 10 21 10 33 0 11 5 20 10 20 6
0 10 5 10 12 0 6 6 19 13 27 35 41 47 105 47 249 0 81 5 152 10 163 6 11 13
35 15 53 3 18 10 46 16 62 6 16 13 42 15 58 3 17 10 34 17 38 6 4 9 8 5 8 -6
0 23 112 65 245 32 102 86 287 93 317 7 29 10 39 17 58 3 8 25 71 47 140 23
69 44 132 47 140 3 8 8 26 10 40 2 14 10 34 17 45 7 11 16 34 20 50 6 25 45
110 76 165 12 21 121 294 124 311 2 8 6 21 9 29 3 8 17 53 32 100 14 47 29 92
32 100 8 20 52 178 58 210 8 43 14 63 31 110 9 25 30 92 46 150 15 58 34 121
40 140 10 26 13 301 15 1098 l3 1062 -23 1 c-12 1 -28 1 -34 0 -7 -1 -13 3
-13 9 0 5 8 10 18 10 13 0 18 6 16 23 -1 12 -3 25 -3 30 -1 4 -6 7 -12 7 -8 0
-9 -4 0 -13 14 -17 4 -27 -26 -27 -14 0 -23 -6 -23 -15 0 -20 -13 -19 -40 5
-28 24 -34 25 -53 5 -13 -12 -15 -12 -20 4 -3 14 -11 17 -31 14 -14 -3 -29
-10 -32 -15 -8 -13 16 -29 31 -21 5 3 5 0 -2 -7 -6 -7 -9 -19 -6 -26 3 -9 -1
-14 -12 -14 -9 0 -14 4 -11 9 9 14 -65 45 -106 45 -21 0 -38 4 -38 9 0 4 4 6
9 3 5 -3 12 1 15 10 5 12 2 15 -9 10 -10 -4 -14 -2 -9 5 4 6 0 15 -7 20 -12 8
-12 11 1 19 14 9 7 15 -14 11 -5 -1 -6 5 -3 14 8 18 -4 20 -22 3 -11 -11 -12
-8 -7 15 6 26 5 28 -15 22 -18 -6 -21 -4 -16 9 4 9 -2 21 -14 30 -12 8 -22 26
-23 40 -1 27 -20 35 -30 14 -4 -7 -4 -3 -2 9 2 14 -5 30 -20 44 -13 12 -37 49
-54 83 -42 83 -62 117 -82 140 -10 10 -15 23 -12 27 2 4 -2 11 -9 16 -7 4 -24
24 -37 43 -13 19 -43 54 -67 78 -24 23 -43 47 -43 52 0 6 -6 10 -14 10 -8 0
-18 5 -22 12 -4 7 -3 8 4 4 19 -11 14 11 -6 31 -24 23 -63 119 -56 137 3 8 1
17 -5 20 -6 4 -8 13 -4 21 3 8 0 15 -7 15 -6 0 -8 5 -4 11 3 6 7 79 8 162 1
128 -1 157 -16 185 -10 17 -14 32 -10 32 12 0 2 84 -11 95 -7 6 -12 18 -13 28
-3 62 -5 69 -17 64 -11 -4 -14 6 -12 40 1 33 -3 47 -17 54 -10 5 -15 16 -12
24 4 8 2 15 -4 15 -6 0 -13 18 -17 39 -4 22 -13 42 -21 45 -8 3 -14 16 -14 30
0 13 -4 26 -10 28 -5 2 -12 17 -14 33 -2 17 -11 50 -20 74 -9 24 -16 52 -16
62 0 11 -5 19 -11 19 -5 0 -7 5 -4 10 3 6 2 10 -4 10 -6 0 -9 14 -7 31 2 20
-1 32 -10 36 -8 3 -14 10 -13 17 2 12 -2 24 -34 96 -11 25 -23 47 -28 50 -5 3
-10 17 -12 30 -2 13 -9 26 -16 28 -17 6 -121 108 -121 120 0 5 -12 15 -27 22
-16 7 -23 14 -17 17 7 2 4 13 -10 28 -19 21 -22 22 -28 7 -5 -13 -7 -12 -7 6
-1 19 -5 22 -21 17 -15 -5 -20 -2 -20 10 0 13 6 16 25 11 14 -4 25 -2 25 4 0
10 -13 14 -42 11 -12 -2 -18 5 -18 18 0 14 5 19 15 15 10 -4 15 0 15 14 0 12
5 24 10 27 6 4 8 10 5 15 -3 5 -1 11 4 14 5 3 8 27 6 52 -2 25 1 58 6 72 21
52 28 231 14 317 -5 28 -7 58 -6 68 1 10 -4 28 -12 41 -14 21 -33 105 -30 134
0 6 -3 12 -8 12 -5 0 -6 7 -3 15 4 8 2 21 -4 28 -6 6 -13 33 -17 60 -4 26 -16
64 -26 84 -11 21 -19 43 -19 50 0 11 -371 13 -1978 13 -1752 0 -1979 -2 -1979
-15 0 -8 6 -15 14 -15 9 0 11 -8 7 -24 -5 -21 -3 -24 15 -19 12 3 21 1 21 -6
0 -6 -4 -11 -10 -11 -5 0 -10 -5 -10 -11 0 -5 5 -7 11 -3 15 9 30 -16 23 -38
-4 -12 0 -18 11 -18 13 0 16 -6 13 -25 -4 -17 -1 -25 8 -25 17 0 19 -46 3 -56
-6 -4 -9 1 -7 12 1 11 -1 20 -6 22 -5 1 -11 -12 -13 -30 -4 -39 -23 -63 -23
-30 0 12 -4 22 -10 22 -5 0 -10 -4 -10 -10 0 -5 -17 -10 -38 -10 -27 0 -41 -6
-50 -21 -9 -14 -17 -18 -25 -11 -19 15 -87 25 -87 12 0 -5 -5 -10 -10 -10 -6
0 -9 3 -8 8 1 4 -5 21 -15 38 -9 17 -13 34 -10 38 4 3 -1 6 -11 6 -9 0 -15 -4
-12 -9 8 -13 -18 -21 -35 -10 -13 8 -6 13 14 10 12 -2 8 5 -28 42 -20 21 -42
37 -50 37 -8 0 -19 9 -25 20 -6 12 -21 20 -36 20 -14 0 -23 4 -19 9 9 16 -15
24 -30 11 -8 -7 -26 -10 -40 -7 -16 3 -24 0 -22 -7 2 -6 14 -13 28 -14 25 -4
71 -32 52 -32 -9 0 -9 -8 -1 -31 6 -16 7 -33 3 -37 -4 -4 -10 -1 -12 6 -3 6
-12 12 -20 12 -9 0 -13 -6 -10 -14 3 -8 1 -17 -6 -20 -9 -3 -9 -5 1 -5 17 -1
15 -31 -3 -31 -8 0 -17 1 -20 3 -2 1 -12 -8 -21 -21 -13 -19 -23 -22 -50 -19
-19 3 -34 1 -34 -3 0 -4 -14 -22 -32 -39 -29 -28 -30 -31 -10 -31 11 0 24 -4
27 -10 8 -13 -11 -13 -37 1 -14 8 -23 8 -31 0 -8 -8 -8 -11 1 -11 7 0 22 -9
34 -20 17 -16 18 -20 6 -20 -9 0 -18 7 -22 15 -3 8 -12 15 -20 15 -8 0 -18 9
-21 20 -7 21 -18 24 -50 10 -17 -7 -12 -12 12 -9 4 0 11 -9 15 -21 4 -12 12
-19 17 -15 5 3 12 1 16 -5 7 -11 -9 -13 -53 -4 -21 4 -29 11 -25 20 5 13 -7
18 -34 15 -6 -1 -14 3 -18 9 -3 5 1 10 9 10 26 0 13 44 -15 50 -17 4 -25 14
-27 33 -3 21 -9 27 -27 27 -18 0 -22 4 -18 20 3 11 10 20 17 21 6 1 0 4 -13 8
-13 3 -25 15 -27 25 -5 32 -13 46 -29 46 -8 0 -15 5 -15 10 0 6 8 10 18 10 10
0 19 7 19 15 0 8 -9 15 -19 15 -10 0 -18 6 -18 13 0 8 -3 7 -10 -3 -5 -8 -13
-11 -17 -6 -4 4 1 15 12 23 15 11 15 14 3 10 -10 -3 -19 1 -22 10 -4 9 1 17
14 20 24 6 26 19 5 27 -9 3 -18 -1 -21 -9 -9 -23 -27 -18 -21 5 5 20 0 20
-1125 20 -939 0 -1129 -2 -1119 -13 7 -9 8 -24 1 -47 -7 -25 -6 -36 3 -42 9
-6 7 -11 -6 -19 -11 -7 -15 -15 -10 -22 10 -15 10 -38 -1 -56 -5 -7 -10 -50
-11 -95 -1 -44 -4 -82 -5 -83 -1 -2 -3 -6 -4 -10 -14 -63 -19 -90 -17 -101 1
-8 -2 -19 -7 -25 -27 -33 -50 -86 -40 -89 7 -3 3 -13 -10 -26 -12 -12 -22 -29
-22 -37 0 -8 -4 -15 -9 -15 -11 0 -51 -80 -51 -103 0 -9 -7 -17 -15 -17 -8 0
-15 -6 -15 -14 0 -7 -9 -25 -21 -40 -11 -14 -17 -26 -12 -26 4 0 1 -6 -8 -13
-16 -12 -33 -46 -31 -59 1 -5 -4 -8 -11 -8 -11 0 -47 -34 -47 -44 0 -2 -14
-18 -30 -36 -17 -18 -30 -38 -30 -45 0 -7 -6 -16 -12 -18 -10 -4 -10 -6 0 -6
8 -1 6 -7 -5 -20 -18 -19 -67 -77 -82 -96 -4 -6 -16 -24 -27 -40 -10 -17 -26
-35 -34 -42 -8 -6 -12 -15 -8 -18 4 -4 1 -22 -7 -40 -7 -19 -11 -36 -7 -39 3
-3 0 -6 -7 -6 -6 0 -16 -12 -22 -27 -23 -65 -55 -123 -66 -123 -7 0 -13 -7
-13 -16 0 -10 -6 -14 -15 -10 -8 3 -15 1 -15 -5 0 -6 -7 -8 -16 -5 -8 3 -12 2
-9 -4 3 -6 -3 -10 -14 -10 -11 0 -22 -4 -25 -9 -4 -5 -33 -7 -66 -5 -53 3 -64
8 -95 38 -19 20 -35 33 -35 30 0 -3 -11 7 -25 22 -14 15 -25 35 -25 44 0 10
-8 20 -19 23 -10 2 -24 18 -32 36 -8 17 -17 31 -21 31 -5 0 -8 6 -8 13 0 8 -7
28 -16 46 -9 18 -18 49 -20 69 -10 103 -32 189 -51 196 -8 3 -12 10 -9 14 3 5
-5 20 -17 33 -12 13 -22 26 -22 29 0 4 -8 14 -17 24 -10 10 -18 24 -18 32 0 8
-6 25 -14 37 -21 31 -14 137 10 154 10 7 15 15 12 19 -9 8 23 43 55 60 15 8
25 19 22 24 -4 6 5 10 20 10 14 0 28 7 32 15 3 9 13 15 22 13 9 -1 26 3 39 10
18 10 22 10 23 0 0 -7 5 -3 11 10 6 12 18 22 27 23 10 0 12 2 4 6 -17 6 -16
23 1 23 7 0 16 10 20 23 5 18 8 20 16 7 8 -13 10 -13 11 3 1 9 2 23 3 30 1 6
-2 18 -7 25 -6 8 -6 12 2 12 6 0 11 6 11 14 0 8 10 18 21 21 13 4 17 10 11 14
-6 4 2 12 19 20 19 8 28 19 25 27 -3 7 5 20 16 29 20 13 24 13 39 -1 16 -15
17 -14 12 5 -3 12 -10 21 -17 21 -19 0 -38 51 -24 67 9 11 5 13 -18 12 -63 -4
-82 1 -87 21 -3 11 -13 20 -24 20 -15 0 -15 -2 -3 -10 20 -13 13 -16 -51 -24
-50 -5 -59 -3 -85 19 -17 15 -36 23 -46 19 -10 -3 -18 -1 -18 4 0 5 -16 7 -35
5 -25 -2 -37 1 -41 12 -4 9 -19 15 -39 15 -18 0 -38 6 -44 14 -9 11 -66 27
-106 30 -5 1 -15 6 -21 12 -7 6 -31 9 -54 7 -24 -2 -48 2 -55 7 -9 8 -15 7
-19 -2 -4 -9 -8 -10 -11 -2 -3 7 -15 9 -27 6 -16 -4 -19 -2 -13 8 6 10 -1 12
-33 8 -24 -4 -51 -1 -65 7 -21 11 -27 10 -40 -2 -8 -9 -20 -12 -27 -8 -9 6 -9
10 1 17 10 6 7 8 -11 7 -41 -2 -52 0 -45 11 4 7 -702 10 -2109 10 l-2116 0 0
-4780z m9014 4614 c8 -3 12 -12 9 -20 -7 -18 -23 -18 -23 0 0 8 -6 17 -12 19
-9 4 -9 6 -1 6 6 1 18 -2 27 -5z m-34 -24 c0 -5 -4 -10 -10 -10 -5 0 -10 5
-10 10 0 6 5 10 10 10 6 0 10 -4 10 -10z m70 -20 c0 -5 -2 -10 -4 -10 -3 0 -8
5 -11 10 -3 6 -1 10 4 10 6 0 11 -4 11 -10z m-60 -10 c0 -5 -5 -10 -11 -10 -5
0 -7 5 -4 10 3 6 8 10 11 10 2 0 4 -4 4 -10z m-73 -96 c-3 -3 -12 -4 -19 -1
-8 3 -5 6 6 6 11 1 17 -2 13 -5z m-3717 -34 c0 -5 -7 -7 -15 -4 -8 4 -15 8
-15 10 0 2 7 4 15 4 8 0 15 -4 15 -10z m3600 -1 c0 -8 4 -8 15 1 8 6 19 8 26
4 8 -5 3 -12 -15 -21 -15 -8 -24 -18 -21 -23 10 -16 -21 -11 -35 5 -9 11 -9
17 2 29 16 18 28 20 28 5z m-155 -118 c3 -5 2 -12 -3 -15 -5 -3 -9 1 -9 9 0
17 3 19 12 6z m4458 -521 c32 0 39 -3 27 -11 -12 -8 -10 -9 8 -4 16 5 31 1 45
-12 35 -30 88 -48 140 -48 46 1 62 -10 32 -21 -8 -4 -12 -10 -9 -15 3 -5 8 -7
12 -5 4 2 7 -8 7 -22 0 -26 -35 -72 -54 -72 -5 0 -11 -9 -14 -21 -3 -12 -10
-18 -15 -15 -5 3 -12 -4 -15 -15 -4 -15 -11 -20 -23 -15 -9 3 -23 1 -30 -5
-11 -9 -14 -7 -14 7 0 16 -2 16 -10 4 -8 -12 -15 -11 -52 8 -59 31 -107 65
-108 76 0 6 -9 20 -21 32 -12 12 -22 34 -23 48 0 14 -5 26 -9 26 -5 0 -5 9 -2
20 4 11 2 20 -4 20 -6 0 -11 5 -11 11 0 6 9 8 23 3 12 -3 19 -3 15 1 -10 10
33 34 50 29 8 -2 32 -4 55 -4z m-5346 -564 c-5 -16 -27 -19 -27 -3 0 7 7 14
15 14 9 0 14 -5 12 -11z m-139 -42 c0 -14 -3 -22 -7 -17 -5 8 -18 9 -46 4 -5
-1 -3 -6 5 -11 10 -6 12 -12 4 -20 -7 -7 -16 -5 -30 5 -19 15 -19 15 0 30 11
8 30 15 43 15 13 0 23 5 23 10 0 6 2 10 4 10 2 0 4 -12 4 -26z m322 -3 c0 -5
-7 -11 -15 -15 -15 -5 -20 5 -8 17 9 10 23 9 23 -2z m-1070 -21 c0 -5 -4 -10
-10 -10 -5 0 -10 5 -10 10 0 6 5 10 10 10 6 0 10 -4 10 -10z m-13 -18 c9 -6 7
-11 -6 -19 -14 -9 -20 -7 -29 8 -10 16 -9 19 5 19 10 0 23 -4 30 -8z m543 -42
c8 -5 11 -10 5 -10 -5 0 -17 5 -25 10 -8 5 -10 10 -5 10 6 0 17 -5 25 -10z
m-55 -40 c3 -5 1 -10 -4 -10 -6 0 -11 5 -11 10 0 6 2 10 4 10 3 0 8 -4 11 -10z
m-60 -22 c7 -7 1 -8 -20 -4 -16 4 -34 12 -40 18 -7 7 -1 8 20 4 17 -4 35 -12
40 -18z m-470 -7 c3 -5 1 -12 -5 -16 -5 -3 -10 1 -10 9 0 18 6 21 15 7z m525
5 c0 -3 -4 -8 -10 -11 -5 -3 -10 -1 -10 4 0 6 5 11 10 11 6 0 10 -2 10 -4z
m-695 -46 c-3 -5 -13 -10 -21 -10 -8 0 -14 5 -14 10 0 6 9 10 21 10 11 0 17
-4 14 -10z m148 3 c-7 -2 -19 -2 -25 0 -7 3 -2 5 12 5 14 0 19 -2 13 -5z
m-1006 -66 c-1 -4 -6 -8 -11 -7 -5 1 -12 -3 -15 -9 -4 -6 -12 -6 -21 -1 -12 7
-12 12 0 34 13 25 14 25 32 9 10 -9 17 -21 15 -26z m859 29 c20 -21 -1 -31
-27 -13 -19 14 -16 20 9 26 2 1 10 -5 18 -13z m-332 -65 c-3 -3 -12 3 -21 14
-8 11 -19 19 -24 17 -6 -1 -7 2 -4 9 5 7 15 3 31 -12 13 -12 21 -25 18 -28z
m266 15 c0 -3 -4 -8 -10 -11 -5 -3 -10 -1 -10 4 0 6 5 11 10 11 6 0 10 -2 10
-4z m-70 -69 c0 -5 -7 -7 -15 -4 -8 4 -17 2 -20 -3 -7 -12 -45 10 -45 26 0 8
11 8 40 1 22 -6 40 -15 40 -20z m-112 -36 c10 -6 7 -10 -11 -13 -18 -4 -24 -1
-20 9 6 15 13 16 31 4z m-8 -41 c0 -11 -4 -20 -9 -20 -7 0 -8 17 -2 38 4 10
11 -2 11 -18z m65 -20 c3 -5 -3 -10 -14 -10 -12 0 -21 -4 -21 -10 0 -5 -7 -10
-15 -10 -18 0 -19 6 -2 25 14 17 43 19 52 5z m-695 -69 c0 -10 -26 -9 -36 2
-4 4 2 7 14 7 12 0 22 -4 22 -9z m-140 -24 c8 -3 -1 -5 -20 -5 -19 0 -29 2
-22 5 6 2 9 10 5 16 -5 9 -3 9 8 1 8 -6 21 -14 29 -17z m40 8 c0 -12 -19 -12
-23 0 -4 9 -1 12 9 8 7 -3 14 -7 14 -8z m47 -10 c-5 -14 -29 -13 -34 2 -3 7 4
11 16 10 12 -1 20 -6 18 -12z m-171 -55 c0 -12 -4 -16 -9 -11 -5 5 -6 14 -3
20 10 15 12 14 12 -9z m14 -274 c0 -3 -4 -8 -10 -11 -5 -3 -10 -1 -10 4 0 6 5
11 10 11 6 0 10 -2 10 -4z m4173 -40 c-10 -13 -20 -22 -22 -20 -4 4 29 44 36
44 2 0 -4 -11 -14 -24z m52 -35 c-6 -5 -21 -11 -35 -15 -21 -5 -20 -3 5 9 35
17 42 18 30 6z m-4148 -27 c-3 -3 -12 -4 -19 -1 -8 3 -5 6 6 6 11 1 17 -2 13
-5z m4082 -6 c-2 -2 -16 -14 -31 -27 -16 -14 -28 -22 -28 -18 0 10 42 47 54
47 5 0 7 -1 5 -2z m-4222 -34 c-3 -3 -12 -4 -19 -1 -8 3 -5 6 6 6 11 1 17 -2
13 -5z m4153 -8 c0 -3 -4 -8 -10 -11 -5 -3 -10 -1 -10 4 0 6 5 11 10 11 6 0
10 -2 10 -4z m-4434 -143 c-11 -11 -17 4 -9 23 7 18 8 18 11 1 2 -10 1 -21 -2
-24z m1134 -17 c0 -2 -7 -7 -16 -10 -8 -3 -12 -2 -9 4 6 10 25 14 25 6z m60
-20 c0 -10 -7 -12 -22 -8 -21 5 -21 6 -2 13 10 4 20 8 22 8 1 1 2 -5 2 -13z
m86 -21 c2 -21 -1 -23 -17 -14 -20 10 -24 21 -12 32 14 15 28 6 29 -18z m3553
-53 c-13 -9 -27 -17 -31 -18 -5 -1 -11 -2 -15 -3 -5 -1 -1 -6 7 -12 12 -9 12
-10 -4 -5 -10 4 -25 1 -34 -6 -13 -11 -14 -10 -10 2 2 8 27 27 54 41 53 29 73
29 33 1z m-3854 -2 c-3 -5 -11 -10 -16 -10 -6 0 -7 5 -4 10 3 6 11 10 16 10 6
0 7 -4 4 -10z m3422 -36 c-3 -3 -12 -4 -19 -1 -8 3 -5 6 6 6 11 1 17 -2 13 -5z
m88 -4 c-3 -5 -11 -10 -16 -10 -6 0 -7 5 -4 10 3 6 11 10 16 10 6 0 7 -4 4
-10z m385 -8 c0 -5 -12 -14 -27 -21 l-28 -12 25 21 c29 22 30 23 30 12z m-345
-22 c-3 -5 -11 -10 -16 -10 -6 0 -7 5 -4 10 3 6 11 10 16 10 6 0 7 -4 4 -10z
m-165 -4 c0 -2 -9 -6 -20 -9 -11 -3 -20 -1 -20 4 0 5 9 9 20 9 11 0 20 -2 20
-4z m-2950 -87 c0 -6 -4 -7 -10 -4 -5 3 -10 11 -10 16 0 6 5 7 10 4 6 -3 10
-11 10 -16z m281 14 c0 -5 2 -16 4 -25 4 -20 -12 -23 -35 -7 -13 9 -13 10 1 6
13 -4 15 -1 12 14 -3 10 0 19 6 19 6 0 11 -3 12 -7z m-171 -138 c0 -8 -4 -15
-10 -15 -5 0 -7 7 -4 15 4 8 8 15 10 15 2 0 4 -7 4 -15z m-966 -147 c-3 -4
-12 -8 -20 -8 -8 0 -13 4 -10 8 3 5 12 9 20 9 8 0 13 -4 10 -9z m-244 -132 c0
-2 -7 -6 -15 -10 -8 -3 -15 -1 -15 4 0 6 7 10 15 10 8 0 15 -2 15 -4z m80 -96
c-8 -5 -19 -10 -25 -10 -5 0 -3 5 5 10 8 5 20 10 25 10 6 0 3 -5 -5 -10z m50
-14 c0 -2 -7 -7 -16 -10 -8 -3 -12 -2 -9 4 6 10 25 14 25 6z m-117 -73 c-7 -2
-19 -2 -25 0 -7 3 -2 5 12 5 14 0 19 -2 13 -5z m9142 -43 c3 6 11 8 16 4 5 -3
7 -9 4 -14 -3 -5 3 -13 12 -19 17 -10 17 -10 1 -11 -10 0 -18 5 -18 11 0 7
-12 10 -30 7 -16 -3 -30 -3 -30 -2 0 1 3 10 6 18 5 12 10 14 19 6 9 -8 15 -8
20 0z m230 0 c3 -5 -1 -10 -9 -10 -9 0 -16 5 -16 10 0 6 4 10 9 10 6 0 13 -4
16 -10z m59 -44 c-7 -18 -34 -22 -34 -5 0 5 5 7 10 4 6 -3 13 1 16 10 4 9 8
14 10 12 3 -2 2 -12 -2 -21z m-64 -16 c0 -5 -2 -10 -4 -10 -3 0 -8 5 -11 10
-3 6 -1 10 4 10 6 0 11 -4 11 -10z m-90 -110 c0 -5 -5 -10 -11 -10 -5 0 -7 5
-4 10 3 6 8 10 11 10 2 0 4 -4 4 -10z m-8973 -109 c3 -21 1 -22 -13 -10 -11 9
-13 14 -4 17 9 3 9 7 -1 14 -12 8 -12 9 0 6 8 -2 16 -15 18 -27z m71 -19 c3
-9 -2 -13 -14 -10 -9 1 -19 9 -22 16 -3 9 2 13 14 10 9 -1 19 -9 22 -16z m-13
-132 c3 -5 2 -10 -4 -10 -5 0 -13 5 -16 10 -3 6 -2 10 4 10 5 0 13 -4 16 -10z
m-85 -90 c0 -5 -2 -10 -4 -10 -3 0 -8 5 -11 10 -3 6 -1 10 4 10 6 0 11 -4 11
-10z m-42 -35 c-3 -3 -9 2 -12 12 -6 14 -5 15 5 6 7 -7 10 -15 7 -18z m-213
-75 c3 -5 1 -10 -4 -10 -6 0 -11 5 -11 10 0 6 2 10 4 10 3 0 8 -4 11 -10z
m-35 -36 c0 -11 -5 -14 -16 -10 -9 3 -18 6 -20 6 -3 0 -2 5 1 10 10 16 35 12
35 -6z m17 -29 c-4 -8 -2 -17 4 -20 5 -4 6 -12 2 -18 -6 -11 -21 -83 -25 -129
-2 -20 -52 -26 -63 -8 -3 6 0 10 8 10 8 0 17 7 21 15 3 8 12 15 21 15 8 0 15
4 15 10 0 5 -7 7 -16 3 -14 -5 -14 -3 1 26 9 18 18 49 20 69 4 43 3 42 11 42
3 0 4 -7 1 -15z m-54 -51 c-4 -10 -9 -12 -15 -6 -12 12 -1 35 12 27 5 -3 6
-13 3 -21z m1252 -55 c22 -5 45 -11 50 -12 6 -1 17 -7 25 -12 8 -6 22 -14 31
-20 98 -61 127 -90 127 -130 0 -16 -4 -22 -8 -15 -4 6 -18 11 -31 9 -30 -3
-70 8 -134 37 -61 27 -232 59 -297 56 -36 -2 -48 1 -48 12 0 7 7 17 16 20 9 4
14 13 10 22 -3 8 -2 12 4 9 6 -3 10 -1 10 6 0 6 8 9 20 6 11 -3 20 -1 20 3 0
19 139 25 205 9z m-1275 -13 c0 -3 -4 -8 -10 -11 -5 -3 -10 -1 -10 4 0 6 5 11
10 11 6 0 10 -2 10 -4z m-53 -95 l22 -28 -22 0 c-17 0 -22 6 -24 28 -1 16 -1
29 1 29 1 0 12 -13 23 -29z m51 -16 c-3 -3 -9 2 -12 12 -6 14 -5 15 5 6 7 -7
10 -15 7 -18z m52 5 c0 -5 -4 -10 -10 -10 -5 0 -10 5 -10 10 0 6 5 10 10 10 6
0 10 -4 10 -10z m-15 -30 c3 -6 -1 -7 -9 -4 -18 7 -21 14 -7 14 6 0 13 -4 16
-10z m205 -15 c0 -8 -7 -15 -15 -15 -26 0 -18 20 13 29 1 1 2 -6 2 -14z m-290
-86 c0 -11 -4 -17 -10 -14 -5 3 -10 13 -10 21 0 8 5 14 10 14 6 0 10 -9 10
-21z m1250 -12 c0 -14 -33 -20 -69 -11 -32 7 -14 19 34 22 23 2 35 -2 35 -11z
m-1016 -13 c25 -10 19 -19 -14 -20 -29 -1 -37 6 -23 19 8 9 17 9 37 1z m1119
-22 c9 -8 17 -21 17 -27 0 -7 9 -24 20 -38 27 -34 25 -54 -7 -64 l-28 -10 24
-13 c14 -7 61 -20 105 -29 80 -17 81 -18 79 -46 -1 -16 -9 -33 -18 -37 -8 -5
-15 -16 -15 -23 0 -35 -27 -6 -44 47 -4 14 -11 15 -37 8 -17 -5 -34 -12 -37
-14 -7 -8 6 -36 17 -36 6 0 8 7 5 15 -8 19 10 19 26 0 10 -12 8 -19 -11 -40
-13 -13 -32 -25 -41 -25 -9 0 -20 -9 -23 -20 -3 -11 -13 -20 -21 -20 -8 0 -14
-8 -14 -17 0 -13 3 -14 12 -5 18 18 25 15 31 -14 5 -28 -18 -84 -35 -84 -5 0
-8 -7 -4 -15 3 -8 1 -15 -4 -15 -13 0 -13 -27 0 -35 16 -10 40 14 40 38 0 20
0 20 15 1 12 -15 16 -16 24 -5 6 9 11 10 15 2 4 -6 11 -9 16 -6 26 16 7 -73
-20 -95 -6 -5 -22 -38 -24 -50 -1 -3 -4 -9 -7 -15 -4 -5 -12 -28 -19 -50 -7
-22 -18 -46 -24 -54 -6 -8 -10 -43 -10 -78 2 -56 0 -61 -12 -46 -8 11 -13 13
-14 6 0 -7 -5 -12 -11 -10 -6 1 -14 -5 -17 -13 -2 -8 -1 -12 2 -8 10 8 46 -23
46 -40 0 -7 -6 -15 -14 -18 -10 -4 -13 -18 -9 -55 4 -44 3 -49 -16 -49 -11 0
-25 -9 -31 -19 -13 -26 -13 -44 2 -35 8 5 9 2 3 -12 -4 -10 -7 -27 -7 -36 0
-10 -5 -18 -11 -18 -7 -1 -22 -9 -34 -19 -18 -15 -20 -24 -14 -54 6 -22 5 -39
-2 -46 -6 -6 -10 -29 -9 -51 2 -35 0 -40 -18 -40 -12 0 -18 -5 -15 -10 3 -6 0
-13 -9 -16 -8 -3 -19 -19 -25 -35 -9 -25 -14 -29 -36 -23 -22 5 -25 3 -25 -21
0 -18 -4 -24 -12 -19 -10 6 -10 4 0 -7 6 -7 12 -16 12 -19 0 -10 -68 -2 -88 9
-15 10 -15 11 6 17 13 4 22 14 22 25 0 16 5 18 25 13 19 -5 25 -2 25 10 0 9 5
16 12 16 23 0 -1 11 -33 15 -26 3 -30 2 -19 -6 12 -8 11 -10 -5 -7 -26 4 -34
48 -9 48 14 0 15 3 6 12 -9 9 -15 9 -24 0 -7 -7 -16 -12 -22 -12 -6 0 -5 5 1
11 6 6 9 19 6 28 -5 13 -3 14 8 4 28 -27 28 -11 -1 17 -17 17 -39 30 -50 30
-10 0 -21 8 -23 18 -3 12 -5 10 -6 -7 -1 -24 -2 -24 -15 -6 -8 11 -12 24 -9
29 4 5 -2 15 -13 23 -16 12 -17 15 -4 23 11 7 16 5 18 -5 2 -8 8 -15 13 -15 8
0 10 6 13 43 1 14 -43 11 -58 -4 -13 -12 -49 -11 -41 1 3 6 -1 13 -10 16 -10
4 -12 11 -7 18 11 14 3 98 -9 90 -22 -13 -29 9 -10 28 12 10 19 23 16 29 -4 5
1 9 9 9 9 0 16 7 16 15 0 8 -9 15 -20 15 -13 0 -18 5 -14 15 4 8 16 15 28 15
17 0 18 2 6 10 -12 7 -12 10 -1 10 8 0 11 6 7 16 -5 13 -2 15 14 11 13 -3 20
0 20 9 0 9 12 14 36 14 28 0 35 3 32 18 -2 9 -13 18 -26 20 -12 2 -22 7 -22
12 0 4 -10 10 -22 14 -23 6 -22 6 7 26 17 11 24 20 16 20 -11 0 -9 4 5 15 16
13 17 16 4 25 -13 9 -13 12 3 21 30 18 18 29 -28 24 -24 -2 -47 0 -50 5 -3 6
3 10 15 10 20 0 21 1 3 24 -12 16 -22 21 -29 15 -7 -6 -22 -6 -38 1 -23 9 -29
6 -28 -10 0 -3 -16 -6 -36 -5 -20 0 -50 -4 -66 -8 l-30 -8 25 20 24 21 -30 -6
c-16 -4 -34 -11 -39 -15 -6 -5 -20 -9 -33 -9 -13 0 -26 -6 -29 -13 -5 -14 -74
-19 -74 -5 0 4 3 8 8 8 4 0 16 13 27 27 l19 27 -37 -29 c-27 -20 -41 -25 -49
-17 -7 7 -18 4 -36 -13 -25 -23 -25 -23 -41 -4 -11 13 -23 17 -38 13 -25 -7
-29 -24 -11 -42 9 -9 7 -12 -9 -12 -14 0 -20 6 -19 18 0 10 -6 17 -17 17 -27
0 -40 30 -26 57 9 17 9 23 0 26 -6 2 -18 10 -26 19 -8 8 -15 12 -15 8 0 -3 -5
-3 -10 0 -7 5 -8 11 -1 18 6 8 5 19 -5 31 -7 11 -15 18 -17 15 -1 -2 -9 -12
-16 -22 -12 -15 -12 -17 4 -11 16 6 17 3 11 -22 -9 -35 -20 -42 -53 -36 -16 3
-21 7 -13 12 7 4 9 13 5 20 -5 8 -3 11 6 8 16 -5 41 56 31 80 -4 12 -1 14 13
8 11 -4 16 -4 12 0 -3 4 2 19 13 34 16 22 17 29 6 33 -16 6 -36 -11 -36 -31 0
-7 -4 -10 -10 -7 -5 3 -7 0 -4 -8 3 -8 -2 -17 -10 -20 -9 -4 -16 -13 -16 -21
0 -8 -7 -22 -16 -30 -8 -9 -17 -28 -18 -43 -2 -16 -5 -28 -6 -28 -1 0 -3 -10
-4 -22 -2 -13 1 -23 5 -23 5 0 6 -7 2 -15 -5 -13 -2 -14 21 -4 23 11 29 10 46
-9 21 -22 9 -42 -14 -23 -7 6 -16 8 -19 4 -11 -11 -8 -23 7 -23 9 0 12 -8 9
-24 -3 -13 0 -32 5 -43 8 -15 6 -27 -9 -52 -21 -34 -25 -61 -9 -61 6 0 10 -4
10 -10 0 -5 -7 -10 -15 -10 -8 0 -15 -4 -15 -10 0 -5 5 -10 10 -10 7 0 10 -34
8 -95 -2 -52 -1 -97 2 -98 3 -2 0 -3 -6 -1 -7 1 -15 -16 -18 -39 -14 -87 -25
-117 -44 -111 -10 4 -13 3 -6 -3 6 -4 14 -20 17 -34 5 -20 2 -29 -10 -33 -9
-4 -13 -9 -10 -12 3 -4 -3 -28 -14 -55 -23 -60 -23 -60 -4 -53 21 8 19 -10 -4
-30 -13 -12 -21 -38 -26 -79 -4 -34 -13 -75 -21 -91 -7 -16 -11 -32 -9 -37 3
-4 1 -10 -4 -14 -6 -3 -8 -24 -5 -46 3 -24 1 -38 -5 -35 -12 8 -32 -50 -24
-70 3 -9 0 -20 -8 -25 -10 -7 -11 -11 -2 -17 8 -5 8 -16 -1 -43 -9 -24 -9 -42
-3 -57 7 -16 6 -29 -3 -46 -7 -14 -9 -30 -4 -38 6 -10 5 -10 -9 1 -12 9 -17
10 -17 2 0 -7 -5 -9 -11 -5 -8 5 -10 -1 -7 -20 3 -14 2 -29 -3 -31 -4 -3 -10
15 -13 40 -3 25 -8 65 -11 89 -3 24 -6 124 -6 223 0 99 -4 185 -8 191 -10 17
-41 4 -34 -14 3 -8 -1 -14 -10 -14 -9 0 -24 -18 -33 -40 -10 -22 -23 -39 -28
-37 -6 2 -20 21 -31 43 -16 33 -20 62 -21 189 -1 103 -6 167 -17 204 l-16 54
32 -33 c18 -18 40 -44 49 -58 l17 -26 7 29 c4 15 3 51 -3 80 l-9 52 33 -10
c52 -16 80 2 85 55 2 24 0 66 -4 93 -5 28 -5 70 -2 95 4 25 6 51 5 58 -3 18
48 35 65 21 11 -9 14 -7 14 10 0 11 9 26 19 33 16 10 18 15 8 27 -10 12 -9 13
13 1 23 -12 24 -12 11 4 -12 15 -13 21 -2 38 11 18 11 20 -3 15 -8 -3 -18 -2
-21 3 -3 5 4 12 15 15 17 5 19 10 9 21 -8 9 -8 14 -1 14 7 0 9 19 6 55 -4 39
-2 61 8 72 9 12 9 15 1 9 -10 -5 -13 3 -13 29 0 22 -4 34 -10 30 -5 -3 -10 -1
-10 4 0 6 5 11 11 11 5 0 8 4 5 9 -6 10 16 61 27 61 4 0 7 5 7 11 0 6 -7 9
-14 6 -10 -4 -13 -1 -9 9 3 7 12 14 20 14 13 0 13 3 2 16 -10 13 -10 17 1 24
12 7 11 10 -4 16 -13 5 -14 9 -5 14 18 12 40 83 29 94 -18 18 -11 39 11 33 16
-4 18 -3 9 8 -8 9 -5 14 11 18 16 4 19 10 14 27 -6 19 -5 20 14 9 26 -17 40
-3 15 15 -18 14 -18 15 -1 21 9 4 17 14 17 22 0 10 6 13 16 9 9 -3 22 -6 30
-6 20 0 17 -20 -3 -20 -14 -1 43 -27 67 -31 23 -5 28 3 13 19 -10 10 -23 17
-29 15 -16 -6 -27 14 -14 22 6 4 17 1 25 -5 8 -7 22 -9 32 -6 9 4 19 3 22 -2
3 -4 30 -15 60 -23 30 -8 56 -20 59 -27 2 -8 -2 -10 -15 -5 -15 6 -16 4 -5 -9
7 -9 21 -14 32 -11 12 3 20 0 20 -7 0 -9 4 -9 13 -3 16 13 68 23 61 12 -6 -10
6 -12 54 -9 35 2 42 -13 15 -29 -16 -9 -16 -10 4 -11 12 0 48 7 79 15 53 14
58 14 73 -4 9 -10 27 -18 41 -17 19 1 26 -5 28 -23 3 -18 0 -22 -11 -18 -9 3
-18 -1 -21 -10 -4 -11 -2 -14 9 -9 12 4 13 2 3 -13 -6 -11 -18 -17 -25 -14 -7
3 -13 0 -13 -6 0 -7 14 -17 30 -22 18 -7 31 -19 32 -30 0 -10 1 -25 2 -31 1
-8 -11 -13 -29 -13 -20 0 -31 -6 -33 -17 -3 -13 4 -16 39 -12 23 2 47 8 53 13
13 10 46 11 46 1 0 -4 16 -11 35 -17 22 -7 35 -7 35 -1 0 5 4 6 10 3 5 -3 20
1 33 10 13 8 32 13 41 9 9 -4 24 0 34 8 11 10 40 16 85 16 37 1 72 4 78 7 5 4
16 1 24 -5 12 -10 15 -9 15 8 0 15 5 20 15 16 9 -4 15 0 15 9 0 13 6 14 32 6
30 -8 31 -8 15 8 -15 15 -15 17 0 28 25 18 9 45 -26 45 -16 0 -33 -4 -36 -10
-3 -5 -13 -10 -21 -10 -8 0 -12 5 -9 10 9 15 -8 12 -33 -5 -16 -12 -26 -13
-42 -5 -24 13 -25 20 -7 45 10 12 16 14 21 7 4 -7 12 -12 18 -12 6 0 3 11 -6
25 -16 24 -11 31 18 26 5 -1 6 5 2 14 -3 8 -9 22 -12 30 -5 12 0 14 22 9 26
-5 31 -1 55 43 15 26 30 64 34 83 4 19 9 38 11 42 6 9 34 -1 57 -20z m-1161
-44 c-6 -6 -15 -8 -19 -4 -4 4 -1 11 7 16 19 12 27 3 12 -12z m-58 -20 c-7
-10 -15 -10 -33 1 -7 5 -11 14 -7 20 5 7 12 7 26 -1 10 -7 16 -16 14 -20z
m-114 -43 c0 -14 -2 -25 -4 -25 -2 0 -6 11 -8 25 -3 14 -1 25 3 25 5 0 9 -11
9 -25z m828 -13 c2 -7 -2 -12 -10 -12 -17 1 -49 25 -42 33 9 8 47 -8 52 -21z
m737 -21 c3 -5 1 -12 -5 -16 -5 -3 -10 1 -10 9 0 18 6 21 15 7z m-1987 -9 c7
-5 15 -26 19 -46 6 -36 5 -38 -15 -31 -17 5 -21 3 -16 -9 9 -22 -12 -20 -47 5
-16 11 -29 19 -30 17 0 -2 -3 -21 -5 -43 -3 -23 -13 -46 -24 -55 -10 -8 -21
-28 -23 -45 -3 -19 -5 -12 -6 21 -3 121 81 228 147 186z m1897 -163 c11 -17
-1 -21 -15 -4 -8 9 -8 15 -2 15 6 0 14 -5 17 -11z m-70 -49 c3 -5 -1 -10 -9
-10 -9 0 -16 5 -16 10 0 6 4 10 9 10 6 0 13 -4 16 -10z m15 -75 c0 -8 -4 -15
-10 -15 -5 0 -10 7 -10 15 0 8 5 15 10 15 6 0 10 -7 10 -15z m2840 -134 c42
-84 48 -201 7 -137 -14 21 -22 24 -50 19 l-33 -5 2 44 c2 53 12 88 24 88 5 0
7 7 4 15 -13 34 27 13 46 -24z m-4649 -50 l-1 -25 23 22 c13 12 30 22 38 22 8
0 20 5 27 12 9 9 12 9 12 -4 0 -18 -47 -90 -66 -101 -8 -4 -14 -14 -14 -21 0
-8 -6 -16 -14 -19 -7 -3 -16 -18 -19 -34 -3 -15 -10 -46 -16 -68 -12 -48 -22
-221 -14 -252 3 -13 10 -20 16 -16 7 4 8 0 2 -13 -4 -10 -10 -36 -13 -57 -4
-37 -4 -37 23 -27 15 6 30 8 32 6 8 -8 -8 -26 -23 -26 -8 0 -14 -8 -14 -17 -1
-11 -9 -3 -21 20 -17 32 -20 57 -20 175 0 75 5 173 11 217 6 44 15 125 20 180
5 55 10 102 10 105 4 12 22 -58 21 -79z m459 -45 c0 -3 -4 -8 -10 -11 -5 -3
-10 -1 -10 4 0 6 5 11 10 11 6 0 10 -2 10 -4z m605 -46 c3 -5 -1 -10 -10 -10
-9 0 -13 5 -10 10 3 6 8 10 10 10 2 0 7 -4 10 -10z m102 -16 c-3 -3 -12 -4
-19 -1 -8 3 -5 6 6 6 11 1 17 -2 13 -5z m-602 -34 c3 -5 1 -10 -4 -10 -6 0
-11 5 -11 10 0 6 2 10 4 10 3 0 8 -4 11 -10z m639 -33 c-3 -10 -1 -24 5 -31 9
-10 7 -15 -6 -20 -10 -4 -19 -2 -21 3 -2 6 -12 11 -23 11 -10 0 -19 5 -19 11
0 6 7 9 15 6 8 -4 17 -2 20 3 3 4 -7 13 -22 18 -19 7 -22 11 -10 11 10 1 26 8
34 17 13 13 17 13 24 2 5 -7 6 -21 3 -31z m-624 -12 c0 -9 -82 -56 -88 -51 -7
7 -5 9 38 35 34 21 50 26 50 16z m-356 -39 c-6 -16 -24 -23 -24 -8 0 10 22 33
27 28 2 -2 1 -11 -3 -20z m40 -1 c-4 -8 -8 -15 -10 -15 -2 0 -4 7 -4 15 0 8 4
15 10 15 5 0 7 -7 4 -15z m1799 -90 c-5 -15 -53 -21 -53 -7 0 9 42 30 52 25 4
-2 5 -10 1 -18z m-826 -381 c-3 -3 -12 -4 -19 -1 -8 3 -5 6 6 6 11 1 17 -2 13
-5z m34 -137 c-8 -8 -11 -7 -11 4 0 20 13 34 18 19 3 -7 -1 -17 -7 -23z m46 7
c-3 -3 -12 -4 -19 -1 -8 3 -5 6 6 6 11 1 17 -2 13 -5z m-87 -14 c0 -5 -2 -10
-4 -10 -3 0 -8 5 -11 10 -3 6 -1 10 4 10 6 0 11 -4 11 -10z m65 -20 c-3 -5
-14 -10 -23 -10 -15 0 -15 2 -2 10 20 13 33 13 25 0z m100 -130 c3 -5 1 -10
-4 -10 -6 0 -11 5 -11 10 0 6 2 10 4 10 3 0 8 -4 11 -10z m-30 -20 c3 -5 1
-10 -4 -10 -6 0 -11 5 -11 10 0 6 2 10 4 10 3 0 8 -4 11 -10z m330 -20 c-3 -5
3 -13 12 -19 16 -9 16 -10 1 -11 -9 0 -23 -3 -32 -6 -12 -4 -16 0 -16 15 0 12
5 21 11 21 5 0 7 4 4 10 -3 6 1 7 9 4 9 -3 14 -10 11 -14z m67 -66 c-6 -35
-12 -29 -12 14 0 23 3 32 9 24 4 -7 6 -24 3 -38z m59 -4 c5 0 9 -4 9 -10 0 -5
-9 -10 -21 -10 -11 0 -18 4 -15 9 4 5 3 11 -1 14 -5 2 -2 2 5 0 8 -1 18 -3 23
-3z m-391 -61 c0 -5 -4 -9 -10 -9 -5 0 -10 7 -10 16 0 8 5 12 10 9 6 -3 10
-10 10 -16z m858 -310 c-3 -40 -18 -49 -18 -11 0 25 7 42 17 42 2 0 2 -14 1
-31z m-1052 -36 c0 -12 6 -18 19 -19 11 -1 25 -2 30 -4 6 -1 14 -2 19 -1 4 1
19 -10 33 -25 19 -20 24 -35 20 -58 -2 -17 -1 -41 4 -53 5 -14 4 -25 -2 -29
-6 -3 -7 -19 -4 -35 5 -22 3 -29 -7 -27 -9 2 -12 -6 -10 -25 l4 -28 -31 15
c-18 10 -35 30 -42 51 -7 19 -20 35 -29 35 -28 1 -53 28 -51 57 2 15 2 47 2
71 0 23 5 42 11 42 6 0 8 9 5 20 -4 17 4 27 24 29 4 1 6 -7 5 -16z m-981 -42
c3 -5 1 -12 -5 -16 -5 -3 -10 1 -10 9 0 18 6 21 15 7z m-38 -70 c0 -11 -5 -17
-9 -15 -11 7 -10 34 1 34 6 0 9 -9 8 -19z m1577 -470 c4 -5 23 -12 44 -16 24
-4 39 -12 39 -21 0 -19 -17 -18 -33 4 -7 9 -14 12 -14 5 0 -6 10 -19 22 -27
19 -14 23 -14 34 2 11 13 15 14 22 4 5 -7 16 -10 26 -6 16 6 17 5 5 -15 -15
-23 -43 -36 -58 -27 -16 10 -41 -5 -41 -24 0 -13 -5 -17 -20 -13 -11 3 -20 11
-20 19 0 7 -11 16 -25 20 -21 5 -23 8 -10 21 16 16 6 47 -17 56 -8 3 -6 6 5 6
9 1 17 6 17 11 0 13 17 13 24 1z m1120 -706 c-4 -8 -11 -15 -16 -15 -6 0 -5 6
2 15 7 8 14 15 16 15 2 0 1 -7 -2 -15z"/>
<path d="M6667 6353 c-3 -5 -2 -15 3 -23 7 -11 12 -11 23 -2 7 7 17 9 20 5 4
-3 7 -1 7 5 0 7 -4 12 -9 12 -5 0 -16 3 -24 6 -8 3 -17 1 -20 -3z"/>
<path d="M5610 6301 c0 -11 4 -21 9 -21 18 0 21 18 6 30 -13 10 -15 9 -15 -9z"/>
<path d="M5517 6283 c-4 -3 -7 -13 -7 -22 1 -13 3 -13 11 2 11 19 8 33 -4 20z"/>
<path d="M5660 6246 c0 -2 7 -7 16 -10 8 -3 12 -2 9 4 -6 10 -25 14 -25 6z"/>
<path d="M6763 6215 c0 -18 19 -15 25 3 2 7 -3 12 -10 12 -8 0 -15 -7 -15 -15z"/>
<path d="M5606 6179 c14 -16 10 -49 -7 -49 -5 0 -9 -7 -9 -15 0 -8 -8 -15 -17
-15 -19 -1 -53 -23 -53 -34 0 -4 9 -4 20 -1 12 4 26 0 36 -9 11 -12 20 -13 34
-6 28 15 40 12 33 -7 -6 -16 -4 -16 15 1 26 22 28 28 7 20 -29 -11 -15 12 27
44 35 27 38 32 20 32 -13 0 -25 -7 -28 -15 -4 -8 -14 -15 -23 -14 -9 0 -11 3
-4 5 14 6 -4 54 -20 54 -5 0 -4 6 2 14 9 10 5 13 -18 12 -26 -1 -28 -3 -15
-17z"/>
<path d="M6755 6150 c3 -5 10 -10 16 -10 5 0 9 5 9 10 0 6 -7 10 -16 10 -8 0
-12 -4 -9 -10z"/>
<path d="M5500 6130 c-13 -8 -13 -10 2 -10 12 0 15 -5 11 -17 -4 -10 -2 -14 4
-10 6 4 13 16 16 27 6 22 -8 26 -33 10z"/>
<path d="M6117 6124 c4 -10 10 -11 24 -3 24 13 24 14 -5 15 -17 1 -23 -2 -19
-12z"/>
<path d="M6046 6063 c-30 -10 -42 -11 -53 -2 -10 9 -17 9 -25 1 -11 -11 0 -17
25 -13 4 0 7 -3 7 -9 0 -5 9 -10 21 -10 15 0 19 -5 15 -15 -11 -29 19 -14 41
20 27 41 21 46 -31 28z"/>
<path d="M5495 6040 c-3 -5 1 -10 10 -10 9 0 13 5 10 10 -3 6 -8 10 -10 10 -2
0 -7 -4 -10 -10z"/>
<path d="M6181 6031 c0 -8 -8 -19 -17 -26 -13 -9 -14 -16 -6 -31 11 -18 11
-18 12 3 0 12 5 23 11 25 6 2 9 13 6 23 -2 11 -5 14 -6 6z"/>
<path d="M6270 6008 c-15 -12 -26 -15 -28 -9 -6 17 -26 13 -45 -9 -16 -19 -16
-21 16 -33 27 -12 33 -12 35 0 5 20 19 16 25 -8 3 -12 10 -18 17 -14 6 4 9 13
6 21 -3 7 1 19 8 27 10 10 11 17 2 29 -10 14 -14 14 -36 -4z"/>
<path d="M6347 5989 c-4 -15 -2 -19 10 -15 8 3 17 6 19 6 2 0 4 7 4 15 0 23
-27 18 -33 -6z"/>
<path d="M6360 5880 c0 -5 5 -10 10 -10 6 0 10 5 10 10 0 6 -4 10 -10 10 -5 0
-10 -4 -10 -10z"/>
<path d="M5690 5810 c-9 -6 -10 -10 -3 -10 6 0 15 5 18 10 8 12 4 12 -15 0z"/>
<path d="M6290 5790 c0 -5 5 -10 11 -10 5 0 7 5 4 10 -3 6 -8 10 -11 10 -2 0
-4 -4 -4 -10z"/>
<path d="M6420 5624 c0 -8 5 -12 10 -9 6 3 10 10 10 16 0 5 -4 9 -10 9 -5 0
-10 -7 -10 -16z"/>
<path d="M6670 5631 c0 -13 26 -32 33 -24 14 13 6 33 -13 33 -11 0 -20 -4 -20
-9z"/>
<path d="M6725 5610 c3 -5 10 -10 16 -10 5 0 9 5 9 10 0 6 -7 10 -16 10 -8 0
-12 -4 -9 -10z"/>
<path d="M6542 5558 c-2 -10 -8 -18 -12 -18 -9 0 -25 -59 -17 -66 11 -11 37
11 37 32 0 13 6 24 13 24 8 0 19 11 25 25 11 23 10 25 -15 23 -15 -2 -28 -10
-31 -20z"/>
<path d="M6230 5364 c0 -8 5 -12 10 -9 6 3 10 10 10 16 0 5 -4 9 -10 9 -5 0
-10 -7 -10 -16z"/>
<path d="M6256 5325 c-3 -8 -1 -15 3 -15 5 0 11 7 15 15 3 8 1 15 -3 15 -5 0
-11 -7 -15 -15z"/>
<path d="M6397 5284 c-4 -4 -7 -17 -7 -28 1 -19 1 -20 11 -3 11 19 8 43 -4 31z"/>
<path d="M6345 5230 c-7 -12 2 -30 16 -30 12 0 12 27 0 35 -5 3 -12 1 -16 -5z"/>
<path d="M5425 5210 c-3 -5 -1 -10 4 -10 6 0 11 5 11 10 0 6 -2 10 -4 10 -3 0
-8 -4 -11 -10z"/>
<path d="M5157 5169 c-10 -6 -16 -17 -13 -27 3 -9 -1 -44 -8 -77 -11 -47 -12
-63 -2 -76 11 -16 14 -15 39 16 21 26 28 49 33 104 6 65 5 71 -12 71 -10 0
-27 -5 -37 -11z"/>
<path d="M5296 4704 c-8 -22 -8 -24 7 -18 8 3 14 11 14 19 0 20 -13 19 -21 -1z"/>
<path d="M5225 4480 c3 -5 8 -10 11 -10 2 0 4 5 4 10 0 6 -5 10 -11 10 -5 0
-7 -4 -4 -10z"/>
<path d="M5250 4440 c0 -11 2 -20 4 -20 2 0 6 9 9 20 3 11 1 20 -4 20 -5 0 -9
-9 -9 -20z"/>
<path d="M5232 4425 c0 -16 2 -22 5 -12 2 9 2 23 0 30 -3 6 -5 -1 -5 -18z"/>
<path d="M6340 4150 c0 -5 5 -10 10 -10 6 0 10 5 10 10 0 6 -4 10 -10 10 -5 0
-10 -4 -10 -10z"/>
<path d="M8821 11234 c0 -11 3 -14 6 -6 3 7 2 16 -1 19 -3 4 -6 -2 -5 -13z"/>
<path d="M8855 11240 c3 -5 8 -10 11 -10 2 0 4 5 4 10 0 6 -5 10 -11 10 -5 0
-7 -4 -4 -10z"/>
<path d="M8910 11229 c-11 -8 -12 -12 -2 -16 6 -2 12 -9 12 -14 0 -11 -27 -12
-33 -1 -2 4 -2 1 -1 -5 2 -7 -1 -13 -7 -13 -6 0 -7 -5 -3 -11 5 -8 9 -7 14 1
4 7 15 10 25 7 9 -4 14 -3 10 3 -3 6 -1 10 4 10 6 0 11 -4 11 -10 0 -8 21 -8
50 0 3 1 -5 5 -17 10 -13 5 -21 15 -19 22 1 7 1 10 -1 6 -6 -11 -33 -10 -33 1
0 5 6 12 13 14 6 3 8 6 2 6 -5 0 -17 -4 -25 -10z"/>
<path d="M8810 11176 c0 -2 7 -7 16 -10 8 -3 12 -2 9 4 -6 10 -25 14 -25 6z"/>
<path d="M8877 11093 c-11 -10 -8 -33 4 -33 6 0 9 7 5 15 -3 8 -1 15 3 15 5 0
11 -5 13 -12 2 -6 10 -8 16 -4 7 4 10 12 7 17 -7 10 -38 12 -48 2z"/>
<path d="M5015 11070 c-3 -5 1 -10 9 -10 9 0 16 5 16 10 0 6 -4 10 -9 10 -6 0
-13 -4 -16 -10z"/>
<path d="M8686 10951 c-4 -7 -5 -15 -2 -18 9 -9 19 4 14 18 -4 11 -6 11 -12 0z"/>
<path d="M8622 10943 c12 -3 16 -12 13 -34 -2 -16 0 -27 5 -24 5 3 7 12 4 19
-3 8 0 17 6 21 15 9 -6 25 -30 24 -11 -1 -11 -2 2 -6z"/>
<path d="M8590 10909 c0 -11 5 -17 10 -14 6 3 10 13 10 21 0 8 -4 14 -10 14
-5 0 -10 -9 -10 -21z"/>
<path d="M8680 10909 c0 -5 5 -7 10 -4 6 3 10 8 10 11 0 2 -4 4 -10 4 -5 0
-10 -5 -10 -11z"/>
<path d="M8715 10910 c3 -5 8 -10 11 -10 2 0 4 5 4 10 0 6 -5 10 -11 10 -5 0
-7 -4 -4 -10z"/>
<path d="M14937 10069 c-9 -6 -22 -7 -29 -3 -6 4 -4 -3 5 -16 15 -22 15 -25 0
-42 -14 -16 -14 -18 -2 -13 9 3 22 -2 30 -11 13 -15 11 -16 -11 -10 -17 5 -21
4 -11 -2 19 -14 6 -42 -19 -42 -11 0 -20 -4 -20 -8 0 -4 16 -6 35 -4 21 3 35
0 35 -7 0 -6 -8 -11 -18 -11 -10 0 -19 -7 -19 -15 0 -11 6 -13 21 -9 18 6 19
5 7 -10 -10 -12 -10 -16 -1 -16 10 0 10 -3 0 -15 -7 -8 -18 -15 -24 -15 -6 0
-4 4 4 10 8 5 11 12 8 16 -11 10 -59 14 -53 4 3 -5 12 -7 20 -3 21 7 19 -7 -2
-23 -17 -13 -17 -14 0 -8 13 5 17 1 17 -16 0 -16 4 -20 15 -16 8 3 15 2 15 -2
0 -15 -24 -32 -44 -33 -17 0 -14 -4 12 -16 17 -9 32 -22 32 -29 0 -7 10 -16
22 -20 l22 -7 -23 -18 c-13 -11 -19 -19 -13 -19 5 0 13 -7 16 -16 4 -10 2 -13
-7 -9 -6 4 -2 -2 11 -13 15 -14 18 -22 10 -25 -8 -3 -6 -6 5 -6 16 -1 17 15
17 208 0 158 -3 211 -12 214 -10 4 -10 6 0 6 14 1 17 51 2 51 -5 0 -10 -8 -10
-19 0 -11 -9 -21 -22 -24 -31 -9 -35 0 -10 22 34 29 25 60 -11 40z m23 -9 c0
-5 -8 -10 -17 -10 -15 0 -16 2 -3 10 19 12 20 12 20 0z m10 -100 c0 -11 -4
-20 -9 -20 -5 0 -7 9 -4 20 3 11 7 20 9 20 2 0 4 -9 4 -20z m0 -218 c0 -4 -9
-8 -20 -8 -11 0 -20 4 -20 8 0 4 9 8 20 8 11 0 20 -4 20 -8z"/>
<path d="M14880 9720 c0 -5 5 -10 11 -10 5 0 7 5 4 10 -3 6 -8 10 -11 10 -2 0
-4 -4 -4 -10z"/>
<path d="M6530 8236 c0 -9 5 -16 10 -16 6 0 10 4 10 9 0 6 -4 13 -10 16 -5 3
-10 -1 -10 -9z"/>
<path d="M6010 8181 c0 -5 5 -13 10 -16 6 -3 10 -2 10 4 0 5 -4 13 -10 16 -5
3 -10 2 -10 -4z"/>
<path d="M6769 8073 c0 -10 -2 -28 -5 -40 -5 -29 8 -29 21 0 12 25 8 57 -6 57
-5 0 -9 -8 -10 -17z"/>
<path d="M5875 8070 c-3 -5 -1 -10 4 -10 6 0 11 5 11 10 0 6 -2 10 -4 10 -3 0
-8 -4 -11 -10z"/>
<path d="M5896 8015 c4 -8 10 -12 15 -9 11 6 2 24 -11 24 -5 0 -7 -7 -4 -15z"/>
<path d="M5940 8020 c0 -5 5 -10 10 -10 6 0 10 5 10 10 0 6 -4 10 -10 10 -5 0
-10 -4 -10 -10z"/>
<path d="M6650 8010 c0 -5 5 -10 10 -10 6 0 10 5 10 10 0 6 -4 10 -10 10 -5 0
-10 -4 -10 -10z"/>
<path d="M6626 7915 c-3 -8 0 -15 6 -15 7 0 5 -7 -5 -17 -14 -15 -21 -16 -37
-5 -12 7 -20 8 -20 2 0 -5 5 -10 11 -10 6 0 9 -7 6 -15 -9 -22 12 -29 32 -11
23 21 55 11 48 -15 -3 -11 1 -19 12 -22 12 -3 10 -6 -9 -14 -15 -6 -27 -7 -31
-1 -7 12 -111 -24 -117 -40 -4 -14 29 -4 40 12 5 8 11 7 18 0 9 -9 9 -14 1
-18 -14 -9 -14 -26 -1 -26 17 0 49 42 43 57 -5 13 -3 13 16 2 11 -8 21 -19 21
-25 0 -19 -76 -52 -94 -42 -9 5 -14 13 -11 18 3 4 -3 6 -13 3 -24 -6 -56 -73
-36 -73 8 0 14 6 14 14 0 15 38 29 52 20 5 -3 2 -12 -8 -18 -15 -11 -9 -14 37
-18 60 -7 109 -1 109 13 0 5 -8 9 -17 9 -10 1 -29 7 -43 16 l-25 15 32 -6 c29
-6 32 -4 38 27 9 42 22 58 49 59 15 1 13 3 -8 8 -17 3 -29 9 -27 13 1 4 5 17
8 28 6 24 28 26 49 5 9 -8 19 -15 24 -15 4 0 10 7 14 15 3 8 1 15 -4 15 -6 0
-10 7 -10 15 0 16 -25 21 -34 6 -3 -5 -16 -7 -28 -4 -14 4 -26 0 -35 -12 -9
-14 -16 -16 -24 -8 -15 15 -3 33 22 33 10 0 19 5 19 10 0 6 -9 10 -21 10 -11
0 -29 4 -39 10 -13 7 -19 6 -24 -5z"/>
<path d="M6788 7923 c7 -3 16 -2 19 1 4 3 -2 6 -13 5 -11 0 -14 -3 -6 -6z"/>
<path d="M5790 7910 c0 -5 5 -10 10 -10 6 0 10 5 10 10 0 6 -4 10 -10 10 -5 0
-10 -4 -10 -10z"/>
<path d="M6720 7820 c0 -5 7 -10 15 -10 8 0 15 5 15 10 0 6 -7 10 -15 10 -8 0
-15 -4 -15 -10z"/>
<path d="M5750 7800 c6 -11 13 -20 16 -20 2 0 0 9 -6 20 -6 11 -13 20 -16 20
-2 0 0 -9 6 -20z"/>
<path d="M6808 7803 c7 -3 16 -2 19 1 4 3 -2 6 -13 5 -11 0 -14 -3 -6 -6z"/>
<path d="M6897 7754 c-11 -11 3 -24 25 -24 17 0 18 2 8 15 -13 16 -23 19 -33
9z"/>
<path d="M6450 7736 c-9 -12 -8 -15 8 -13 12 0 18 6 15 14 -6 16 -8 16 -23 -1z"/>
<path d="M14790 7685 c0 -5 5 -17 10 -25 5 -8 10 -10 10 -5 0 6 -5 17 -10 25
-5 8 -10 11 -10 5z"/>
<path d="M14900 7665 c0 -8 7 -15 15 -15 8 0 15 7 15 15 0 8 -7 15 -15 15 -8
0 -15 -7 -15 -15z"/>
<path d="M14845 7660 c4 -6 11 -8 16 -5 14 9 11 15 -7 15 -8 0 -12 -5 -9 -10z"/>
<path d="M6396 7645 c-3 -8 -1 -15 4 -15 6 0 10 7 10 15 0 8 -2 15 -4 15 -2 0
-6 -7 -10 -15z"/>
<path d="M6435 7640 c-3 -6 1 -7 9 -4 18 7 21 14 7 14 -6 0 -13 -4 -16 -10z"/>
<path d="M14658 7643 c7 -3 16 -2 19 1 4 3 -2 6 -13 5 -11 0 -14 -3 -6 -6z"/>
<path d="M14875 7640 c3 -5 8 -10 11 -10 2 0 4 5 4 10 0 6 -5 10 -11 10 -5 0
-7 -4 -4 -10z"/>
<path d="M6587 7623 c-12 -12 -7 -22 8 -17 8 4 15 10 15 15 0 11 -14 12 -23 2z"/>
<path d="M5887 7566 c-5 -13 10 -36 24 -36 16 0 15 27 -1 38 -14 8 -19 8 -23
-2z"/>
<path d="M6090 7485 c-10 -12 -10 -15 3 -15 8 0 20 7 27 15 10 12 10 15 -3 15
-8 0 -20 -7 -27 -15z"/>
<path d="M8444 6971 c3 -4 -24 -7 -59 -6 -42 2 -71 -2 -82 -11 -10 -7 -39 -14
-65 -14 -26 0 -50 -4 -53 -10 -3 -5 -24 -10 -45 -10 -22 0 -45 -6 -52 -14 -11
-12 -16 -12 -31 2 -17 15 -19 15 -29 -3 -6 -10 -23 -30 -37 -43 -14 -13 -25
-30 -23 -37 1 -7 -13 -23 -33 -35 -19 -12 -35 -25 -35 -30 0 -17 21 -22 37 -8
14 11 16 11 11 -4 -6 -15 3 -16 84 -12 50 2 94 7 99 10 5 3 9 1 9 -4 0 -5 42
-11 93 -12 50 -1 108 -3 127 -4 60 -2 171 12 186 25 10 8 18 8 27 1 15 -12 97
-4 97 10 0 5 -4 6 -10 3 -5 -3 -10 -1 -10 4 0 6 -12 11 -27 11 -40 0 -16 18
32 23 42 5 74 -7 114 -42 32 -28 39 -19 10 11 -37 38 -72 58 -101 58 -16 0
-28 4 -28 9 0 14 -81 -14 -95 -32 -7 -9 -19 -17 -27 -17 -14 0 -14 4 1 35 16
33 27 39 83 39 10 0 16 7 15 17 -1 14 -7 17 -24 13 -15 -4 -25 -1 -28 8 -4 10
-16 13 -36 10 -23 -3 -28 -1 -23 11 3 9 11 18 17 20 7 2 1 2 -11 0 -35 -6 -62
6 -55 23 3 9 -1 14 -12 14 -9 0 -14 -4 -11 -9z m33 -67 c-3 -3 -12 -4 -19 -1
-8 3 -5 6 6 6 11 1 17 -2 13 -5z m0 -90 c-3 -3 -12 -4 -19 -1 -8 3 -5 6 6 6
11 1 17 -2 13 -5z"/>
<path d="M8575 6940 c3 -5 8 -10 11 -10 2 0 4 5 4 10 0 6 -5 10 -11 10 -5 0
-7 -4 -4 -10z"/>
<path d="M5801 6809 c-14 -32 -10 -46 9 -34 6 4 9 13 6 21 -3 7 -1 16 4 19 12
7 13 25 2 25 -4 0 -13 -14 -21 -31z"/>
<path d="M8700 6760 c0 -5 7 -7 15 -4 8 4 15 8 15 10 0 2 -7 4 -15 4 -8 0 -15
-4 -15 -10z"/>
<path d="M8706 6694 c18 -15 18 -15 -3 -9 -15 4 -23 2 -23 -5 0 -8 10 -10 25
-8 21 5 25 2 20 -13 -4 -12 -1 -21 9 -25 9 -3 16 -12 16 -20 0 -8 4 -14 9 -14
15 0 23 18 11 25 -5 3 -10 14 -10 23 0 17 -46 62 -63 62 -6 0 -2 -7 9 -16z"/>
<path d="M8855 6670 c3 -5 8 -10 11 -10 2 0 4 5 4 10 0 6 -5 10 -11 10 -5 0
-7 -4 -4 -10z"/>
<path d="M8063 6553 c-24 -2 -43 -8 -43 -12 0 -4 -18 -14 -39 -21 -22 -7 -42
-19 -45 -27 -3 -8 -10 -12 -15 -8 -5 3 -12 1 -16 -5 -3 -5 -10 -10 -16 -10 -5
0 -4 9 3 20 10 15 10 22 0 32 -10 10 -14 8 -18 -9 -5 -18 -11 -20 -60 -17
l-55 4 -29 -63 c-18 -40 -26 -72 -23 -89 5 -27 6 -27 32 -10 14 9 29 20 32 25
3 5 9 -1 12 -13 4 -17 10 -20 31 -14 31 7 31 8 7 -42 -22 -44 -21 -50 7 -35
28 15 40 -4 34 -56 -3 -34 -8 -42 -28 -47 -14 -4 -29 -4 -33 -1 -5 3 -11 -2
-15 -10 -3 -8 -1 -15 4 -15 6 0 10 -7 10 -15 0 -8 4 -15 9 -15 5 0 16 -16 26
-36 10 -21 22 -33 30 -31 7 3 18 0 24 -6 15 -15 20 -6 25 42 5 54 12 61 21 22
6 -29 25 -44 25 -20 0 11 88 8 107 -4 18 -11 83 -17 83 -7 0 5 -33 42 -74 83
-41 41 -66 72 -55 70 21 -6 27 12 7 20 -7 3 6 2 30 0 28 -4 42 -2 42 6 0 6 -8
11 -19 11 -10 0 -23 6 -29 13 -11 14 -1 112 14 127 19 18 36 15 40 -8 2 -13
16 -43 30 -68 20 -35 34 -46 66 -55 22 -6 51 -8 64 -5 16 4 24 2 24 -6 0 -10
3 -9 9 1 5 7 14 10 21 6 7 -4 14 1 17 15 3 12 11 19 19 16 16 -6 54 39 54 64
0 9 3 20 6 23 22 22 87 -68 82 -112 -3 -23 1 -26 30 -29 18 -2 42 -12 53 -23
41 -41 47 -8 15 80 -13 36 -13 41 -2 32 8 -7 18 -25 21 -41 8 -37 41 -68 57
-52 9 9 8 18 -2 39 -31 61 -92 144 -118 160 -15 9 -32 22 -37 28 -18 21 -117
67 -187 86 -65 18 -152 22 -265 12z m270 -148 c-6 -16 -63 -21 -63 -6 0 11 51
30 62 24 4 -2 5 -10 1 -18z m-53 -95 c0 -5 -2 -10 -4 -10 -3 0 -8 5 -11 10 -3
6 -1 10 4 10 6 0 11 -4 11 -10z"/>
<path d="M8915 6530 c-3 -5 -1 -10 4 -10 6 0 11 5 11 10 0 6 -2 10 -4 10 -3 0
-8 -4 -11 -10z"/>
<path d="M8125 6230 c3 -5 8 -10 11 -10 2 0 4 5 4 10 0 6 -5 10 -11 10 -5 0
-7 -4 -4 -10z"/>
<path d="M7356 5853 c-11 -11 -6 -23 9 -23 8 0 15 4 15 9 0 13 -16 22 -24 14z"/>
<path d="M9411 5479 c-7 -12 -10 -23 -8 -26 3 -3 11 5 17 17 15 28 8 35 -9 9z"/>
<path d="M7588 5367 c-28 -24 -48 -57 -48 -81 0 -30 54 -73 108 -86 68 -16 77
-7 76 67 0 53 -3 58 -39 90 -45 39 -61 41 -97 10z"/>
<path d="M9192 5207 c-16 -37 -15 -41 4 -23 8 9 14 24 11 34 -3 13 -6 11 -15
-11z"/>
<path d="M9166 5105 c-3 -8 -1 -15 4 -15 6 0 10 7 10 15 0 8 -2 15 -4 15 -2 0
-6 -7 -10 -15z"/>
<path d="M9241 5024 c0 -11 3 -14 6 -6 3 7 2 16 -1 19 -3 4 -6 -2 -5 -13z"/>
<path d="M7394 4979 c-3 -6 -1 -16 5 -22 8 -8 11 -5 11 11 0 24 -5 28 -16 11z"/>
<path d="M7055 4920 c-3 -5 -2 -10 4 -10 5 0 13 5 16 10 3 6 2 10 -4 10 -5 0
-13 -4 -16 -10z"/>
<path d="M7025 4910 c3 -5 8 -10 11 -10 2 0 4 5 4 10 0 6 -5 10 -11 10 -5 0
-7 -4 -4 -10z"/>
<path d="M6970 4830 c0 -5 5 -10 11 -10 5 0 7 5 4 10 -3 6 -8 10 -11 10 -2 0
-4 -4 -4 -10z"/>
<path d="M9376 4830 c-15 -5 -16 -9 -7 -14 7 -5 18 -3 24 3 14 14 6 20 -17 11z"/>
<path d="M8796 3635 c-3 -8 -1 -15 3 -15 5 0 11 7 15 15 3 8 1 15 -3 15 -5 0
-11 -7 -15 -15z"/>
<path d="M8091 3221 c-26 -20 -22 -37 13 -52 18 -8 17 -9 -6 -4 -29 6 -39 -11
-13 -21 8 -4 15 -12 15 -19 0 -20 19 -28 34 -16 7 6 16 7 21 3 4 -4 6 3 3 15
-4 16 -2 20 8 16 8 -3 14 0 14 6 0 6 9 11 20 11 11 0 20 5 20 10 0 6 6 10 13
9 16 -3 87 32 87 43 0 16 -61 7 -80 -12 -11 -11 -25 -20 -31 -20 -6 0 -8 9 -4
20 6 20 -9 28 -20 10 -3 -5 -13 -10 -22 -10 -13 0 -13 3 -3 15 11 13 8 15 -16
15 -16 0 -40 -9 -53 -19z m99 -45 c0 -2 -7 -7 -16 -10 -8 -3 -12 -2 -9 4 6 10
25 14 25 6z"/>
<path d="M8752 3129 c-12 -41 -29 -110 -36 -154 -40 -218 -62 -321 -87 -401
-5 -17 -12 -53 -14 -79 -3 -26 -8 -52 -11 -57 -4 -6 -8 -36 -10 -67 -3 -49 -9
-96 -14 -96 -2 0 -6 -18 -19 -83 -6 -29 -14 -60 -19 -70 -5 -9 -8 -47 -8 -84
1 -39 -3 -68 -9 -68 -5 0 -3 -5 5 -10 12 -8 13 -14 2 -42 -7 -18 -8 -34 -3
-36 5 -2 7 -21 4 -42 -3 -24 -2 -40 4 -40 7 0 8 -27 5 -70 -3 -47 -1 -75 7
-84 7 -8 10 -24 7 -34 -4 -10 -8 -54 -11 -96 -3 -58 -10 -85 -26 -107 -13 -19
-19 -39 -16 -55 2 -13 0 -24 -4 -24 -5 0 -3 -11 3 -25 8 -19 8 -29 0 -37 -8
-8 -7 -17 5 -34 13 -21 13 -25 0 -39 -9 -8 -20 -15 -26 -15 -6 0 -11 -4 -11
-8 0 -5 -9 -18 -21 -31 -16 -17 -20 -31 -17 -59 4 -33 -1 -62 -19 -112 -11
-28 -11 -90 -1 -90 7 0 6 -5 -1 -14 -6 -7 -11 -24 -11 -37 0 -44 -8 -110 -14
-116 -3 -3 -1 -11 4 -18 7 -8 2 -22 -15 -45 -22 -30 -23 -36 -11 -54 15 -23
26 -86 16 -86 -4 0 -1 -20 8 -45 13 -42 16 -44 29 -28 13 17 13 16 4 -4 -11
-22 -5 -42 39 -139 11 -23 22 -54 26 -69 14 -56 27 7 29 140 7 523 38 888 91
1068 7 27 21 113 29 190 8 78 27 227 41 331 16 115 24 209 21 239 -6 46 2 106
24 187 6 19 12 58 14 85 6 63 9 82 28 180 9 44 19 112 22 151 10 107 9 356 -2
383 -8 21 -12 15 -31 -50z m-162 -1689 c0 -5 -4 -10 -9 -10 -6 0 -13 5 -16 10
-3 6 1 10 9 10 9 0 16 -4 16 -10z m-13 -76 c-8 -9 -37 8 -31 18 4 6 10 5 15
-3 6 -10 9 -5 10 16 l2 30 4 -28 c3 -16 3 -31 0 -33z m-70 -231 c-3 -10 -5 -4
-5 12 0 17 2 24 5 18 2 -7 2 -21 0 -30z m0 -45 c-3 -8 -6 -5 -6 6 -1 11 2 17
5 13 3 -3 4 -12 1 -19z m3 -64 c0 -2 -9 -4 -21 -4 -11 0 -18 4 -14 10 5 8 35
3 35 -6z m-40 -568 c0 -3 -4 -8 -10 -11 -5 -3 -10 -1 -10 4 0 6 5 11 10 11 6
0 10 -2 10 -4z"/>
<path d="M8070 3102 c0 -7 -9 -12 -20 -12 -11 0 -20 -4 -20 -10 0 -5 6 -10 14
-10 17 0 41 28 32 37 -3 3 -6 1 -6 -5z"/>
<path d="M7170 2664 c0 -8 5 -12 10 -9 6 4 8 11 5 16 -9 14 -15 11 -15 -7z"/>
<path d="M7146 2605 c-11 -8 -16 -15 -10 -15 5 0 18 7 28 15 11 8 16 15 10 15
-5 0 -18 -7 -28 -15z"/>
<path d="M7210 2521 c0 -6 5 -13 10 -16 6 -3 10 1 10 9 0 9 -4 16 -10 16 -5 0
-10 -4 -10 -9z"/>
</g>
</svg>
