<?xml version="1.0" standalone="no"?>
<!DOCTYPE svg PUBLIC "-//W3C//DTD SVG 20010904//EN"
 "http://www.w3.org/TR/2001/REC-SVG-20010904/DTD/svg10.dtd">
<svg version="1.0" xmlns="http://www.w3.org/2000/svg"
 width="577.000000pt" height="433.000000pt" viewBox="0 0 577.000000 433.000000"
 preserveAspectRatio="xMidYMid meet">

<g transform="translate(0.000000,433.000000) scale(0.100000,-0.100000)"
fill="#000000" stroke="none">
<path d="M0 2491 c0 -1743 1 -1840 17 -1845 10 -3 29 -7 43 -10 28 -4 146 -41
200 -61 64 -24 218 -63 224 -57 8 8 -1 -55 -13 -93 -5 -16 -33 -93 -61 -170
-28 -77 -57 -166 -65 -198 l-13 -57 1343 0 1344 0 -28 63 c-35 78 -89 179
-182 338 -68 117 -72 126 -70 182 2 60 -18 119 -60 178 -12 17 -32 50 -45 75
-13 24 -28 50 -34 57 -40 48 -70 92 -70 103 0 8 -4 14 -8 14 -4 0 -16 14 -27
32 -10 18 -31 45 -47 60 -37 36 -18 35 57 -2 33 -16 73 -30 89 -30 16 0 53
-13 82 -30 35 -20 55 -26 60 -19 4 6 3 14 -2 18 -5 3 -10 11 -11 16 -1 6 -4
17 -7 25 -5 12 4 15 51 13 32 -1 77 -4 100 -7 43 -6 113 16 113 34 0 6 7 10
15 10 8 0 15 3 15 8 0 4 14 13 30 20 67 30 19 82 -78 86 -33 1 -67 7 -75 14
-9 8 -18 9 -21 3 -8 -13 -66 10 -66 26 0 7 -4 13 -9 13 -5 0 -12 11 -15 25 -3
13 -20 32 -36 40 -17 9 -30 21 -30 28 0 8 4 7 10 -3 8 -12 10 -11 10 8 0 12 5
22 10 22 6 0 10 20 10 44 0 41 18 76 40 76 4 0 10 9 13 20 4 16 11 19 36 14
23 -5 37 -2 51 11 21 19 13 34 -22 48 -10 3 -18 11 -18 17 0 14 -27 13 -33 -2
-4 -8 -6 -7 -6 4 -1 11 -7 15 -19 11 -13 -3 -19 1 -19 12 0 12 6 15 24 10 12
-3 39 1 59 10 41 17 68 20 60 6 -4 -5 2 -7 12 -5 9 3 28 1 42 -5 l25 -10 -22
-7 c-13 -3 -23 -10 -23 -15 0 -17 20 -19 64 -7 43 11 47 10 83 -15 33 -24 38
-25 42 -10 3 18 -32 53 -53 53 -7 0 -25 13 -40 29 -39 41 -124 80 -181 85 -28
2 -62 8 -78 14 -16 7 -51 9 -86 5 -54 -5 -59 -4 -58 13 1 11 -4 18 -10 17 -16
-4 -16 -3 -3 33 8 24 20 32 58 43 90 25 112 33 117 42 4 5 15 9 25 9 22 0 60
45 60 70 0 10 -7 23 -16 31 -8 7 -24 30 -35 51 -11 21 -25 38 -32 38 -10 0
-13 27 -12 115 2 96 5 118 19 128 16 11 16 18 3 77 -8 36 -16 71 -18 79 -5 20
-59 72 -95 93 -16 10 -58 36 -94 59 -83 53 -120 53 -218 4 -39 -19 -74 -35
-79 -35 -12 0 -63 -49 -63 -61 0 -6 -4 -7 -10 -4 -5 3 -10 -1 -10 -9 0 -9 -4
-16 -10 -16 -19 0 -10 38 13 54 12 9 16 14 9 10 -12 -5 -12 -2 -2 17 7 13 19
32 28 42 31 35 24 113 -9 104 -12 -3 -19 0 -19 9 0 8 -7 14 -15 14 -14 0 -22
27 -29 98 -1 19 -9 37 -15 42 -9 5 -5 13 13 28 14 11 26 24 26 29 0 15 46 73
53 67 3 -3 13 9 23 27 21 42 29 49 85 82 69 41 106 35 101 -14 -1 -3 10 -5 23
-3 19 2 25 -2 25 -17 0 -13 4 -18 12 -13 7 5 9 0 6 -14 -4 -13 -2 -20 5 -19 7
1 10 -11 8 -33 l-3 -35 32 33 c17 19 37 31 45 29 7 -3 22 5 34 19 21 24 21 24
1 24 -11 0 -20 7 -20 15 0 18 31 35 65 35 18 0 29 6 32 20 3 11 11 20 18 20 6
0 27 8 46 18 24 12 63 18 134 20 55 1 107 3 115 3 38 2 157 -23 198 -41 24
-11 50 -20 57 -20 29 0 185 -196 185 -232 0 -7 11 -36 24 -63 18 -39 23 -69
24 -137 1 -48 6 -96 11 -105 50 -92 56 -252 18 -493 -23 -145 -26 -190 -12
-222 4 -9 3 -22 -1 -29 -4 -8 -3 -9 4 -5 7 4 12 16 12 27 0 30 41 152 57 167
7 7 13 18 13 23 0 14 17 11 34 -6 19 -19 24 -19 29 3 3 9 5 -4 6 -30 1 -49
-50 -222 -88 -296 -12 -23 -21 -51 -21 -62 0 -24 -27 -81 -44 -93 -6 -4 -27
-6 -46 -5 l-35 3 -16 -80 c-9 -44 -28 -104 -43 -134 -14 -30 -26 -66 -26 -79
0 -16 28 -57 83 -121 137 -159 254 -307 261 -329 8 -25 -17 -88 -48 -122 -13
-14 -35 -48 -50 -77 -14 -28 -43 -72 -66 -98 -52 -61 -57 -83 -31 -151 26 -69
26 -83 0 -137 -21 -43 -21 -46 -5 -113 15 -62 21 -92 41 -211 l6 -33 754 0
755 0 18 37 c10 21 38 110 62 198 82 308 190 648 210 660 22 13 50 100 50 152
0 49 11 93 90 358 29 98 56 174 101 280 43 102 59 151 110 336 l29 106 -2 398
c-3 344 -5 399 -18 401 -8 2 -27 6 -42 10 -21 5 -28 2 -28 -8 0 -28 -49 -15
-68 18 -38 69 -119 188 -160 236 -55 63 -64 88 -64 168 0 75 -22 185 -50 250
-28 64 -34 79 -49 130 -17 59 -33 85 -88 143 -51 53 -61 57 -61 23 0 -44 -50
-64 -100 -40 -49 23 -66 94 -23 94 9 0 36 -7 59 -16 38 -15 44 -15 67 0 22 15
25 26 31 99 7 78 -3 143 -40 275 l-6 22 -759 0 -759 0 21 -41 c18 -36 19 -43
6 -56 -8 -8 -32 -17 -55 -20 -38 -5 -42 -3 -89 47 l-49 52 -14 -27 c-12 -23
-12 -27 0 -35 13 -8 12 -12 -5 -24 -11 -9 -25 -16 -32 -16 -6 0 -18 -9 -25
-19 -8 -11 -27 -23 -43 -26 -20 -4 -26 -3 -17 3 10 7 7 16 -18 40 -17 17 -40
52 -51 77 l-20 45 -433 0 -433 0 -7 -67 c-8 -93 -14 -122 -34 -163 -22 -47
-70 -126 -107 -176 -56 -74 -65 -89 -93 -144 -35 -71 -67 -88 -117 -64 -43 20
-85 86 -93 146 -3 23 -18 61 -34 84 -26 40 -28 47 -18 83 8 32 18 42 55 60 32
15 50 32 65 61 12 23 27 43 35 47 8 3 15 16 15 29 0 21 -5 24 -40 25 -22 1
-43 2 -47 3 -5 1 -24 6 -43 10 -19 4 -49 14 -67 22 -17 8 -53 17 -80 20 -26 3
-59 8 -73 12 -14 3 -395 8 -847 9 l-823 3 0 -1839z m2220 1129 c0 -5 -5 -10
-11 -10 -5 0 -7 5 -4 10 3 6 8 10 11 10 2 0 4 -4 4 -10z m267 -76 c-3 -3 -12
-4 -19 -1 -8 3 -5 6 6 6 11 1 17 -2 13 -5z m159 -959 c61 -47 42 -57 -44 -25
-29 11 -68 20 -87 20 -18 0 -37 5 -41 12 -4 6 -3 8 3 5 6 -4 17 0 24 9 20 24
102 12 145 -21z m-561 -15 c3 -5 1 -10 -4 -10 -6 0 -11 5 -11 10 0 6 2 10 4
10 3 0 8 -4 11 -10z m521 -86 c15 -22 15 -27 3 -34 -9 -6 -1 -11 29 -16 25 -4
42 -12 42 -20 0 -17 -23 -31 -28 -16 -2 7 -11 12 -20 12 -12 0 -13 -3 -4 -12
18 -18 15 -28 -8 -28 -18 0 -19 -3 -8 -20 10 -15 10 -22 0 -32 -6 -6 -12 -21
-12 -32 1 -19 1 -19 11 -3 5 9 14 17 19 17 11 0 13 -33 3 -44 -12 -12 -33 -80
-33 -109 0 -16 -6 -43 -14 -60 -29 -66 -38 -94 -37 -120 0 -10 -7 -21 -15 -24
-8 -3 -14 -9 -14 -14 0 -5 -9 -18 -20 -29 -23 -23 -29 -16 -34 35 -2 16 -13
37 -25 46 -13 11 -19 23 -15 30 5 9 1 10 -14 7 -15 -4 -21 -1 -21 11 0 9 -2
28 -5 44 -2 15 0 25 5 21 5 -3 9 4 9 15 0 11 8 25 18 30 18 11 16 14 -28 41
-8 4 -11 12 -7 16 5 5 12 2 17 -6 7 -12 12 -12 21 -3 10 10 9 14 -4 19 -9 3
-17 13 -17 21 0 10 -5 13 -17 8 -10 -4 -54 -8 -98 -10 -44 -1 -87 -4 -95 -6
-8 -2 -19 6 -24 18 -7 15 -19 21 -38 21 -29 -1 -37 -12 -15 -21 12 -5 15 -62
4 -74 -4 -3 -7 -35 -7 -70 0 -35 -4 -71 -9 -81 -20 -40 -29 -82 -18 -82 8 0 7
-4 -1 -12 -7 -7 -12 -21 -12 -32 0 -12 -7 -39 -15 -61 -8 -22 -14 -61 -15 -86
0 -25 -6 -53 -13 -63 -12 -17 -14 -13 -16 30 -1 27 -2 60 -2 74 0 14 -3 40 -5
58 l-5 34 -20 -23 c-28 -32 -39 -12 -39 73 0 56 3 66 15 62 11 -5 15 1 15 20
0 20 4 26 18 24 14 -3 17 6 20 55 2 39 8 60 17 64 18 6 37 73 34 117 -3 51 12
129 32 162 11 17 19 39 19 48 0 20 16 21 23 2 3 -8 14 -13 24 -11 10 1 27 -3
38 -9 22 -14 102 -35 125 -34 44 3 49 -1 46 -39 -3 -30 -9 -40 -32 -51 l-29
-13 30 7 c17 4 48 9 70 10 122 7 185 23 185 46 0 5 -19 8 -42 8 -40 0 -41 0
-23 20 10 11 14 20 10 20 -5 0 1 9 12 20 12 10 24 28 28 40 8 26 11 25 31 -6z
m-672 -59 c5 -14 2 -17 -26 -19 -7 -1 -18 -10 -25 -21 -11 -18 -12 -18 -13 -2
-1 43 50 77 64 42z m22 -158 c19 7 17 -7 -6 -37 -11 -14 -20 -36 -20 -49 0
-13 -3 -22 -6 -19 -3 3 -2 34 2 69 5 35 10 56 12 47 2 -10 9 -15 18 -11z
m1784 -30 c0 -15 -3 -17 -13 -8 -8 6 -17 8 -20 4 -9 -8 -9 20 0 43 6 16 7 16
20 -2 7 -10 13 -27 13 -37z m-1010 -91 c0 -3 -4 -8 -10 -11 -5 -3 -10 -1 -10
4 0 6 5 11 10 11 6 0 10 -2 10 -4z m-272 -516 c1 -19 -2 -42 -8 -50 -8 -13
-12 -11 -27 10 -10 14 -21 37 -24 53 -6 27 -5 28 25 25 28 -3 31 -7 34 -38z
m197 -192 l25 -11 -23 -12 c-23 -12 -37 -3 -37 23 0 15 3 15 35 0z"/>
<path d="M2143 2353 c-11 -22 -10 -24 10 -21 25 3 35 33 15 41 -8 2 -19 -6
-25 -20z"/>
<path d="M2125 2311 c-3 -5 -1 -12 5 -16 5 -3 10 1 10 9 0 18 -6 21 -15 7z"/>
<path d="M2376 2305 c6 -16 54 -21 54 -6 0 5 -10 11 -22 15 -34 9 -38 7 -32
-9z"/>
<path d="M2517 2133 c-4 -3 -7 -13 -7 -22 1 -13 3 -13 11 2 11 19 8 33 -4 20z"/>
<path d="M1976 1958 c-7 -34 -3 -44 13 -33 13 7 15 65 2 65 -5 0 -11 -14 -15
-32z"/>
<path d="M5747 3863 c-10 -10 -8 -118 2 -128 5 -6 11 -19 14 -30 3 -11 5 22 6
73 1 84 -4 104 -22 85z"/>
<path d="M2550 3040 c-13 -8 -13 -11 -1 -19 15 -10 7 -31 -14 -31 -7 0 -15 -7
-19 -15 -4 -13 -2 -13 14 -5 26 14 35 13 21 -4 -8 -10 -9 -16 -1 -21 6 -4 17
9 25 29 9 20 20 36 25 36 6 0 10 5 10 10 0 7 -6 7 -19 0 -16 -8 -20 -6 -23 10
-2 15 -7 17 -18 10z"/>
<path d="M3143 2666 c-49 -10 -108 -50 -98 -66 6 -10 204 -13 250 -4 19 3 32
10 29 15 -3 5 1 9 10 9 8 0 17 -5 19 -10 3 -6 4 -5 3 2 -3 18 -44 22 -62 8
-10 -9 -14 -9 -14 -1 0 6 10 15 23 20 21 8 20 9 -17 25 -44 18 -69 19 -143 2z"/>
<path d="M3086 2518 c-9 -5 -24 -7 -31 -4 -8 3 -17 1 -20 -4 -4 -6 -16 -10
-27 -10 -21 0 -47 -26 -48 -47 0 -7 10 -13 23 -13 31 0 51 -44 30 -66 -14 -14
-14 -18 6 -37 11 -12 21 -16 21 -9 0 8 15 10 52 7 l52 -6 -27 25 c-22 20 -25
31 -22 61 7 54 16 62 31 26 11 -26 18 -31 48 -31 24 0 42 7 56 22 18 19 22 20
30 8 5 -8 10 -20 10 -25 0 -6 8 -15 18 -21 14 -9 22 -8 36 2 17 12 17 14 -4
43 -12 17 -40 42 -63 55 -46 26 -142 40 -171 24z m121 -54 c-3 -3 -12 -4 -19
-1 -8 3 -5 6 6 6 11 1 17 -2 13 -5z"/>
<path d="M2904 2048 c-4 -15 -1 -25 12 -35 29 -21 54 -16 54 10 0 46 -53 66
-66 25z"/>
<path d="M3114 1235 c-8 -20 5 -38 19 -27 7 5 26 14 42 21 29 11 29 11 3 6
-16 -3 -28 -1 -28 5 0 15 -30 12 -36 -5z"/>
<path d="M3368 1205 c-7 -19 -51 -224 -78 -362 -9 -42 -10 -98 -6 -168 5 -64
3 -118 -3 -137 -33 -107 -50 -177 -50 -208 -1 -49 -5 -74 -13 -80 -9 -7 14
-87 36 -127 13 -23 15 -25 16 -8 0 18 19 328 24 402 2 18 7 43 13 55 10 20 31
171 48 343 4 33 11 78 16 100 11 45 8 222 -3 190z"/>
</g>
</svg>
